<svg width="13" height="13" viewBox="0 0 13 13" fill="none" xmlns="http://www.w3.org/2000/svg">
<path d="M6.50065 1.08322C3.50903 1.08322 1.08398 3.50826 1.08398 6.49989C1.08398 9.49151 3.50903 11.9166 6.50065 11.9166C9.49228 11.9166 11.9173 9.49151 11.9173 6.49989C11.9173 3.50826 9.49228 1.08322 6.50065 1.08322Z" stroke="#C7CCE1" stroke-width="1.5" stroke-linecap="round" stroke-linejoin="round"/>
<path d="M2.3125 9.93742C2.3125 9.93742 3.51988 8.39583 6.49904 8.39583C9.47821 8.39583 10.6861 9.93742 10.6861 9.93742M6.49904 6.5C6.93002 6.5 7.34334 6.3288 7.64809 6.02405C7.95284 5.7193 8.12404 5.30598 8.12404 4.875C8.12404 4.44402 7.95284 4.0307 7.64809 3.72595C7.34334 3.4212 6.93002 3.25 6.49904 3.25C6.06807 3.25 5.65474 3.4212 5.34999 3.72595C5.04525 4.0307 4.87404 4.44402 4.87404 4.875C4.87404 5.30598 5.04525 5.7193 5.34999 6.02405C5.65474 6.3288 6.06807 6.5 6.49904 6.5V6.5Z" stroke="#C7CCE1" stroke-width="1.5" stroke-linecap="round" stroke-linejoin="round"/>
</svg>
