<svg width="25" height="25" viewBox="0 0 25 25" fill="none" xmlns="http://www.w3.org/2000/svg">
<path d="M10.4134 1.95557C5.81091 1.95557 2.08008 5.6864 2.08008 10.2889C2.08008 14.8914 5.81091 18.6222 10.4134 18.6222C15.0159 18.6222 18.7467 14.8914 18.7467 10.2889C18.7467 5.6864 15.0159 1.95557 10.4134 1.95557Z" stroke="#6D728E" stroke-width="1.5" stroke-linecap="round" stroke-linejoin="round"/>
<path d="M3.9707 15.5774C3.9707 15.5774 5.8282 13.2057 10.4115 13.2057C14.9949 13.2057 16.8532 15.5774 16.8532 15.5774M10.4115 10.2891C11.0746 10.2891 11.7105 10.0257 12.1793 9.55683C12.6481 9.08799 12.9115 8.4521 12.9115 7.78906C12.9115 7.12602 12.6481 6.49014 12.1793 6.0213C11.7105 5.55245 11.0746 5.28906 10.4115 5.28906C9.7485 5.28906 9.11261 5.55245 8.64377 6.0213C8.17493 6.49014 7.91154 7.12602 7.91154 7.78906C7.91154 8.4521 8.17493 9.08799 8.64377 9.55683C9.11261 10.0257 9.7485 10.2891 10.4115 10.2891V10.2891Z" stroke="#6D728E" stroke-width="1.5" stroke-linecap="round" stroke-linejoin="round"/>
</svg>
