<svg width="25" height="25" viewBox="0 0 25 25" fill="none" xmlns="http://www.w3.org/2000/svg">
<path d="M7.28943 11.3937C9.15339 11.3937 10.6644 9.88267 10.6644 8.01871C10.6644 6.15475 9.15339 4.64371 7.28943 4.64371C5.42547 4.64371 3.91443 6.15475 3.91443 8.01871C3.91443 9.88267 5.42547 11.3937 7.28943 11.3937Z" stroke="#448DC9" stroke-width="1.5" stroke-linecap="round" stroke-linejoin="round"/>
<path d="M17.0394 11.3937C18.9034 11.3937 20.4144 9.88267 20.4144 8.01871C20.4144 6.15475 18.9034 4.64371 17.0394 4.64371C15.1755 4.64371 13.6644 6.15475 13.6644 8.01871C13.6644 9.88267 15.1755 11.3937 17.0394 11.3937Z" stroke="#448DC9" stroke-width="1.5" stroke-linecap="round" stroke-linejoin="round"/>
<path d="M7.28943 21.1437C9.15339 21.1437 10.6644 19.6327 10.6644 17.7687C10.6644 15.9047 9.15339 14.3937 7.28943 14.3937C5.42547 14.3937 3.91443 15.9047 3.91443 17.7687C3.91443 19.6327 5.42547 21.1437 7.28943 21.1437Z" stroke="#448DC9" stroke-width="1.5" stroke-linecap="round" stroke-linejoin="round"/>
<path d="M17.0394 15.1437V20.3937" stroke="#448DC9" stroke-width="1.5" stroke-linecap="round" stroke-linejoin="round"/>
<path d="M19.6644 17.7687H14.4144" stroke="#448DC9" stroke-width="1.5" stroke-linecap="round" stroke-linejoin="round"/>
</svg>
