<svg width="25" height="25" viewBox="0 0 25 25" fill="none" xmlns="http://www.w3.org/2000/svg">
<path d="M12.1644 14.3937C13.4071 14.3937 14.4144 13.3863 14.4144 12.1437C14.4144 10.9011 13.4071 9.89371 12.1644 9.89371C10.9218 9.89371 9.91443 10.9011 9.91443 12.1437C9.91443 13.3863 10.9218 14.3937 12.1644 14.3937Z" stroke="#448DC9" stroke-width="1.5" stroke-linecap="round" stroke-linejoin="round"/>
<path d="M12.4364 21.8937H11.8926C11.5452 21.8938 11.2085 21.7732 10.94 21.5527C10.6716 21.3321 10.488 21.0252 10.4207 20.6843L9.52073 16.1843C9.47779 15.9669 9.48357 15.7426 9.53765 15.5277C9.59174 15.3127 9.69279 15.1124 9.83354 14.9412C9.97429 14.77 10.1512 14.6321 10.3516 14.5374C10.5521 14.4427 10.771 14.3937 10.9926 14.3937H13.3364C13.558 14.3937 13.7769 14.4427 13.9773 14.5374C14.1777 14.6321 14.3547 14.77 14.4954 14.9412C14.6362 15.1124 14.7372 15.3127 14.7913 15.5277C14.8454 15.7426 14.8512 15.9669 14.8082 16.1843L13.9082 20.6843C13.8409 21.0252 13.6574 21.3321 13.3889 21.5527C13.1205 21.7732 12.7838 21.8938 12.4364 21.8937Z" stroke="#448DC9" stroke-width="1.5" stroke-linecap="round" stroke-linejoin="round"/>
<path d="M6.56756 15.0687C6.21638 14.1596 6.09191 13.1788 6.2049 12.2108C6.31789 11.2429 6.66494 10.317 7.21604 9.51334C7.76715 8.70964 8.50573 8.05227 9.36791 7.59806C10.2301 7.14386 11.1899 6.90649 12.1644 6.90649C13.1389 6.90649 14.0988 7.14386 14.961 7.59806C15.8231 8.05227 16.5617 8.70964 17.1128 9.51334C17.6639 10.317 18.011 11.2429 18.124 12.2108C18.237 13.1788 18.1125 14.1596 17.7613 15.0687" stroke="#448DC9" stroke-width="1.5" stroke-linecap="round" stroke-linejoin="round"/>
<path d="M7.32693 20.4781C5.68474 19.4313 4.42637 17.8802 3.74071 16.0575C3.05506 14.2347 2.97911 12.2388 3.52428 10.3692C4.06945 8.49966 5.20631 6.85736 6.76422 5.68886C8.32212 4.52036 10.217 3.8887 12.1644 3.8887C14.1119 3.8887 16.0067 4.52036 17.5646 5.68886C19.1225 6.85736 20.2594 8.49966 20.8046 10.3692C21.3497 12.2388 21.2738 14.2347 20.5881 16.0575C19.9025 17.8802 18.6441 19.4313 17.0019 20.4781" stroke="#448DC9" stroke-width="1.5" stroke-linecap="round" stroke-linejoin="round"/>
</svg>
