<svg width="25" height="25" viewBox="0 0 25 25" fill="none" xmlns="http://www.w3.org/2000/svg">
<path d="M10.4121 2.03906C8.68153 2.03906 6.9898 2.55224 5.55087 3.5137C4.11194 4.47517 2.99043 5.84173 2.32817 7.44058C1.6659 9.03944 1.49262 10.7988 1.83024 12.4961C2.16786 14.1934 3.00122 15.7525 4.22493 16.9762C5.44864 18.2 7.00774 19.0333 8.70507 19.3709C10.4024 19.7086 12.1617 19.5353 13.7606 18.873C15.3594 18.2107 16.726 17.0892 17.6875 15.6503C18.6489 14.2114 19.1621 12.5196 19.1621 10.7891C19.1621 8.46842 18.2402 6.24282 16.5993 4.60188C14.9584 2.96093 12.7328 2.03906 10.4121 2.03906ZM10.4121 18.2891C8.92875 18.2891 7.47871 17.8492 6.24534 17.0251C5.01197 16.201 4.05067 15.0296 3.48302 13.6592C2.91536 12.2887 2.76683 10.7807 3.05622 9.32589C3.34561 7.87103 4.05992 6.53466 5.10881 5.48576C6.15771 4.43687 7.49408 3.72256 8.94894 3.43317C10.4038 3.14378 11.9118 3.29231 13.2822 3.85997C14.6527 4.42762 15.824 5.38892 16.6481 6.62229C17.4722 7.85565 17.9121 9.3057 17.9121 10.7891C17.9121 12.7782 17.1219 14.6858 15.7154 16.0924C14.3089 17.4989 12.4012 18.2891 10.4121 18.2891Z" fill="#448DC9"/>
<path d="M10.4121 16.4141C10.9299 16.4141 11.3496 15.9943 11.3496 15.4766C11.3496 14.9588 10.9299 14.5391 10.4121 14.5391C9.89434 14.5391 9.47461 14.9588 9.47461 15.4766C9.47461 15.9943 9.89434 16.4141 10.4121 16.4141Z" fill="#448DC9"/>
<path d="M11.0371 5.78907H10.0996C9.73004 5.78825 9.36395 5.86043 9.02235 6.00148C8.68075 6.14253 8.37037 6.34967 8.10904 6.61099C7.84771 6.87232 7.64058 7.1827 7.49953 7.5243C7.35848 7.8659 7.28629 8.232 7.28712 8.60157V8.91407H8.53712V8.60157C8.53712 8.18717 8.70174 7.78974 8.99476 7.49672C9.28779 7.20369 9.68522 7.03907 10.0996 7.03907H11.0371C11.4515 7.03907 11.8489 7.20369 12.142 7.49672C12.435 7.78974 12.5996 8.18717 12.5996 8.60157C12.5996 9.01597 12.435 9.4134 12.142 9.70642C11.8489 9.99945 11.4515 10.1641 11.0371 10.1641H9.78712V12.9766H11.0371V11.4141C11.783 11.4141 12.4984 11.1178 13.0259 10.5903C13.5533 10.0629 13.8496 9.34749 13.8496 8.60157C13.8496 7.85565 13.5533 7.14028 13.0259 6.61283C12.4984 6.08539 11.783 5.78907 11.0371 5.78907Z" fill="#448DC9"/>
</svg>
