<svg width="25" height="25" viewBox="0 0 25 25" fill="none" xmlns="http://www.w3.org/2000/svg">
<path d="M12.1644 15.8937C14.2355 15.8937 15.9144 14.2148 15.9144 12.1437C15.9144 10.0726 14.2355 8.39371 12.1644 8.39371C10.0934 8.39371 8.41443 10.0726 8.41443 12.1437C8.41443 14.2148 10.0934 15.8937 12.1644 15.8937Z" stroke="#448DC9" stroke-width="1.5" stroke-linecap="round" stroke-linejoin="round"/>
<path d="M6.14563 19.5875C6.70992 18.476 7.57097 17.5425 8.63333 16.8904C9.69568 16.2383 10.9179 15.8931 12.1644 15.8931C13.4109 15.8931 14.6331 16.2383 15.6954 16.8904C16.7578 17.5425 17.6188 18.476 18.1831 19.5875" stroke="#448DC9" stroke-width="1.5" stroke-linecap="round" stroke-linejoin="round"/>
<path d="M18.9144 12.8937L21.1644 15.1437L23.4144 12.8937" stroke="#448DC9" stroke-width="1.5" stroke-linecap="round" stroke-linejoin="round"/>
<path d="M0.914429 12.8937L3.16443 10.6437L5.41443 12.8937" stroke="#448DC9" stroke-width="1.5" stroke-linecap="round" stroke-linejoin="round"/>
<path d="M21.1644 15.1437V12.8937C21.1665 10.9492 20.5388 9.05632 19.3752 7.49838C18.2117 5.94043 16.5748 4.80124 14.7097 4.25131C12.8446 3.70138 10.8515 3.77029 9.02885 4.44774C7.20618 5.12519 5.65193 6.37474 4.59875 8.00933" stroke="#448DC9" stroke-width="1.5" stroke-linecap="round" stroke-linejoin="round"/>
<path d="M3.16443 10.6437V12.8937C3.16231 14.8382 3.79001 16.7311 4.95358 18.289C6.11715 19.847 7.754 20.9862 9.61911 21.5361C11.4842 22.086 13.4773 22.0171 15.3 21.3397C17.1226 20.6622 18.6769 19.4127 19.7301 17.7781" stroke="#448DC9" stroke-width="1.5" stroke-linecap="round" stroke-linejoin="round"/>
</svg>
