<svg width="25" height="25" viewBox="0 0 25 25" fill="none" xmlns="http://www.w3.org/2000/svg">
<path d="M9.91443 5.39368H5.41443C5.00022 5.39368 4.66443 5.72946 4.66443 6.14368V10.6437C4.66443 11.0579 5.00022 11.3937 5.41443 11.3937H9.91443C10.3286 11.3937 10.6644 11.0579 10.6644 10.6437V6.14368C10.6644 5.72946 10.3286 5.39368 9.91443 5.39368Z" stroke="#448DC9" stroke-width="1.48234" stroke-linecap="round" stroke-linejoin="round"/>
<path d="M9.91443 14.3937H5.41443C5.00022 14.3937 4.66443 14.7295 4.66443 15.1437V19.6437C4.66443 20.0579 5.00022 20.3937 5.41443 20.3937H9.91443C10.3286 20.3937 10.6644 20.0579 10.6644 19.6437V15.1437C10.6644 14.7295 10.3286 14.3937 9.91443 14.3937Z" stroke="#448DC9" stroke-width="1.48234" stroke-linecap="round" stroke-linejoin="round"/>
<path d="M18.9144 5.39368H14.4144C14.0002 5.39368 13.6644 5.72946 13.6644 6.14368V10.6437C13.6644 11.0579 14.0002 11.3937 14.4144 11.3937H18.9144C19.3286 11.3937 19.6644 11.0579 19.6644 10.6437V6.14368C19.6644 5.72946 19.3286 5.39368 18.9144 5.39368Z" stroke="#448DC9" stroke-width="1.48234" stroke-linecap="round" stroke-linejoin="round"/>
<path d="M13.6644 14.3937V17.3937" stroke="#448DC9" stroke-width="1.48234" stroke-linecap="round" stroke-linejoin="round"/>
<path d="M13.6644 20.3937H16.6644V14.3937" stroke="#448DC9" stroke-width="1.48234" stroke-linecap="round" stroke-linejoin="round"/>
<path d="M16.6644 15.8937H19.6644" stroke="#448DC9" stroke-width="1.48234" stroke-linecap="round" stroke-linejoin="round"/>
<path d="M19.6645 18.8937V20.3937" stroke="#448DC9" stroke-width="1.48234" stroke-linecap="round" stroke-linejoin="round"/>
</svg>
