<svg width="25" height="25" viewBox="0 0 25 25" fill="none" xmlns="http://www.w3.org/2000/svg">
<path d="M20.0394 5.10457H4.28943C3.79215 5.10457 3.31523 5.30211 2.9636 5.65374C2.61197 6.00537 2.41443 6.48229 2.41443 6.97957V18.3196C2.41443 18.8168 2.61197 19.2938 2.9636 19.6454C3.31523 19.997 3.79215 20.1946 4.28943 20.1946H20.0394C20.5367 20.1946 21.0136 19.997 21.3653 19.6454C21.7169 19.2938 21.9144 18.8168 21.9144 18.3196V6.97957C21.9144 6.48229 21.7169 6.00537 21.3653 5.65374C21.0136 5.30211 20.5367 5.10457 20.0394 5.10457ZM21.1644 18.3196C21.1644 18.6179 21.0459 18.9041 20.8349 19.1151C20.6239 19.326 20.3378 19.4446 20.0394 19.4446H4.28943C3.99106 19.4446 3.70491 19.326 3.49393 19.1151C3.28295 18.9041 3.16443 18.6179 3.16443 18.3196V6.97957C3.16443 6.6812 3.28295 6.39505 3.49393 6.18407C3.70491 5.97309 3.99106 5.85457 4.28943 5.85457H20.0394C20.3378 5.85457 20.6239 5.97309 20.8349 6.18407C21.0459 6.39505 21.1644 6.6812 21.1644 6.97957V18.3196Z" fill="#448DC9" stroke="#448DC9" stroke-width="0.4"/>
<path d="M18.5394 14.8996H11.4144C11.315 14.8996 11.2196 14.9391 11.1493 15.0094C11.0789 15.0797 11.0394 15.1751 11.0394 15.2746C11.0394 15.374 11.0789 15.4694 11.1493 15.5397C11.2196 15.6101 11.315 15.6496 11.4144 15.6496H18.5394C18.6389 15.6496 18.7343 15.6101 18.8046 15.5397C18.8749 15.4694 18.9144 15.374 18.9144 15.2746C18.9144 15.1751 18.8749 15.0797 18.8046 15.0094C18.7343 14.9391 18.6389 14.8996 18.5394 14.8996Z" fill="#448DC9" stroke="#448DC9" stroke-width="0.4"/>
<path d="M18.5394 9.64957H11.4144C11.315 9.64957 11.2196 9.68908 11.1493 9.7594C11.0789 9.82973 11.0394 9.92511 11.0394 10.0246C11.0394 10.124 11.0789 10.2194 11.1493 10.2897C11.2196 10.3601 11.315 10.3996 11.4144 10.3996H18.5394C18.6389 10.3996 18.7343 10.3601 18.8046 10.2897C18.8749 10.2194 18.9144 10.124 18.9144 10.0246C18.9144 9.92511 18.8749 9.82973 18.8046 9.7594C18.7343 9.68908 18.6389 9.64957 18.5394 9.64957Z" fill="#448DC9" stroke="#448DC9" stroke-width="0.4"/>
<path d="M6.78504 10.8421C6.82015 10.8801 6.86277 10.9105 6.91021 10.9313C6.95765 10.9521 7.00887 10.9628 7.06066 10.9628C7.11245 10.9628 7.16368 10.9521 7.21111 10.9313C7.25855 10.9105 7.30117 10.8801 7.33629 10.8421L9.06504 8.96707C9.09852 8.93088 9.12455 8.88844 9.14164 8.84218C9.15873 8.79593 9.16654 8.74676 9.16462 8.69749C9.16271 8.64821 9.1511 8.5998 9.13048 8.55501C9.10985 8.51022 9.08061 8.46993 9.04441 8.43645C9.00822 8.40296 8.96578 8.37693 8.91952 8.35984C8.87327 8.34276 8.8241 8.33495 8.77483 8.33686C8.72555 8.33878 8.67714 8.35038 8.63235 8.371C8.58756 8.39163 8.54727 8.42087 8.51379 8.45707L7.06066 10.0339L6.06504 8.95582C6.03286 8.91589 5.99283 8.88299 5.94743 8.85915C5.90203 8.83531 5.85222 8.82103 5.80108 8.8172C5.74994 8.81337 5.69856 8.82007 5.65012 8.83688C5.60167 8.8537 5.55719 8.88027 5.51942 8.91495C5.48165 8.94964 5.4514 8.9917 5.43053 9.03855C5.40966 9.08539 5.39862 9.13601 5.39809 9.18729C5.39756 9.23857 5.40756 9.28941 5.42746 9.33667C5.44736 9.38394 5.47674 9.42661 5.51379 9.46207L6.78504 10.8421Z" fill="#448DC9" stroke="#448DC9" stroke-width="0.4"/>
<path d="M8.10506 13.3996H6.47381C6.19217 13.4006 5.92244 13.5133 5.72382 13.7129C5.5252 13.9126 5.41393 14.1829 5.41443 14.4646V16.0846C5.41393 16.3662 5.5252 16.6365 5.72382 16.8362C5.92244 17.0359 6.19217 17.1486 6.47381 17.1496H8.10506C8.38669 17.1486 8.65642 17.0359 8.85504 16.8362C9.05366 16.6365 9.16493 16.3662 9.16443 16.0846V14.4646C9.16493 14.1829 9.05366 13.9126 8.85504 13.7129C8.65642 13.5133 8.38669 13.4006 8.10506 13.3996ZM8.41443 16.0846C8.41493 16.1256 8.4073 16.1663 8.392 16.2044C8.3767 16.2425 8.35402 16.2771 8.32526 16.3064C8.29651 16.3357 8.26225 16.359 8.22446 16.375C8.18667 16.391 8.14609 16.3993 8.10506 16.3996H6.47381C6.43277 16.3993 6.39219 16.391 6.3544 16.375C6.31661 16.359 6.28235 16.3357 6.2536 16.3064C6.22484 16.2771 6.20216 16.2425 6.18686 16.2044C6.17156 16.1663 6.16394 16.1256 6.16443 16.0846V14.4646C6.16394 14.4235 6.17156 14.3828 6.18686 14.3447C6.20216 14.3067 6.22484 14.272 6.2536 14.2427C6.28235 14.2134 6.31661 14.1901 6.3544 14.1742C6.39219 14.1582 6.43277 14.1498 6.47381 14.1496H8.10506C8.14609 14.1498 8.18667 14.1582 8.22446 14.1742C8.26225 14.1901 8.29651 14.2134 8.32526 14.2427C8.35402 14.272 8.3767 14.3067 8.392 14.3447C8.4073 14.3828 8.41493 14.4235 8.41443 14.4646V16.0846Z" fill="#448DC9" stroke="#448DC9" stroke-width="0.4"/>
</svg>
