<svg width="25" height="25" viewBox="0 0 25 25" fill="none" xmlns="http://www.w3.org/2000/svg">
<path d="M12.4128 14.5391C13.6555 14.5391 14.6628 13.5318 14.6628 12.2891C14.6628 11.0465 13.6555 10.0391 12.4128 10.0391C11.1702 10.0391 10.1628 11.0465 10.1628 12.2891C10.1628 13.5318 11.1702 14.5391 12.4128 14.5391Z" stroke="#448DC9" stroke-width="1.5" stroke-linecap="round" stroke-linejoin="round"/>
<path d="M9.41284 7.78914C10.6555 7.78914 11.6628 6.78178 11.6628 5.53914C11.6628 4.2965 10.6555 3.28914 9.41284 3.28914C8.1702 3.28914 7.16284 4.2965 7.16284 5.53914C7.16284 6.78178 8.1702 7.78914 9.41284 7.78914Z" stroke="#448DC9" stroke-width="1.5" stroke-linecap="round" stroke-linejoin="round"/>
<path d="M19.1628 12.2891C20.4055 12.2891 21.4128 11.2818 21.4128 10.0391C21.4128 8.7965 20.4055 7.78914 19.1628 7.78914C17.9202 7.78914 16.9128 8.7965 16.9128 10.0391C16.9128 11.2818 17.9202 12.2891 19.1628 12.2891Z" stroke="#448DC9" stroke-width="1.5" stroke-linecap="round" stroke-linejoin="round"/>
<path d="M19.1628 19.7891C20.4055 19.7891 21.4128 18.7818 21.4128 17.5391C21.4128 16.2965 20.4055 15.2891 19.1628 15.2891C17.9202 15.2891 16.9128 16.2965 16.9128 17.5391C16.9128 18.7818 17.9202 19.7891 19.1628 19.7891Z" stroke="#448DC9" stroke-width="1.5" stroke-linecap="round" stroke-linejoin="round"/>
<path d="M5.66284 20.5391C6.90548 20.5391 7.91284 19.5318 7.91284 18.2891C7.91284 17.0465 6.90548 16.0391 5.66284 16.0391C4.4202 16.0391 3.41284 17.0465 3.41284 18.2891C3.41284 19.5318 4.4202 20.5391 5.66284 20.5391Z" stroke="#448DC9" stroke-width="1.5" stroke-linecap="round" stroke-linejoin="round"/>
<path d="M11.5033 10.236L10.3221 7.59225" stroke="#448DC9" stroke-width="1.5" stroke-linecap="round" stroke-linejoin="round"/>
<path d="M17.0255 10.7516L14.5505 11.5766" stroke="#448DC9" stroke-width="1.5" stroke-linecap="round" stroke-linejoin="round"/>
<path d="M17.3909 16.161L14.1847 13.6673" stroke="#448DC9" stroke-width="1.5" stroke-linecap="round" stroke-linejoin="round"/>
<path d="M10.7347 13.7798L7.34094 16.7985" stroke="#448DC9" stroke-width="1.5" stroke-linecap="round" stroke-linejoin="round"/>
</svg>
