<svg width="25" height="25" viewBox="0 0 25 25" fill="none" xmlns="http://www.w3.org/2000/svg">
<g clip-path="url(#clip0_1534_8021)">
<path d="M17.0859 3.01867C16.8818 2.87964 16.6483 2.79554 16.4061 2.77374C16.1638 2.75195 15.9202 2.79313 15.6966 2.89367L8.36969 5.93117C8.19622 6.00548 8.01072 6.04368 7.82344 6.04367H3.13281C2.73913 6.04367 2.36158 6.20829 2.0832 6.50131C1.80483 6.79434 1.64844 7.19177 1.64844 7.60617V7.73117H0.164062V11.4812H1.64844V11.6437C1.65774 12.0515 1.81823 12.4394 2.0956 12.7244C2.37297 13.0093 2.74523 13.1688 3.13281 13.1687L4.91406 17.1437C5.03468 17.4113 5.22457 17.6378 5.46193 17.797C5.69929 17.9562 5.9745 18.0417 6.25594 18.0437H7.00406C7.39568 18.0404 7.77019 17.8743 8.04601 17.5816C8.32182 17.289 8.47657 16.8934 8.47656 16.4812V13.3187L15.6966 16.3562C15.8742 16.4306 16.0636 16.4687 16.2547 16.4687C16.5512 16.4636 16.84 16.3681 17.0859 16.1937C17.2813 16.0549 17.4424 15.8691 17.5559 15.6517C17.6695 15.4343 17.7323 15.1916 17.7391 14.9437V4.30617C17.738 4.05181 17.6779 3.80158 17.5641 3.57721C17.4503 3.35284 17.2861 3.1611 17.0859 3.01867ZM6.99219 7.60617V11.6437H3.13281V7.60617H6.99219ZM6.99219 16.4812H6.24406L4.78344 13.1687H6.99219V16.4812ZM8.91594 11.8312C8.77494 11.7553 8.62793 11.6926 8.47656 11.6437V7.51867C8.62648 7.48611 8.77347 7.44011 8.91594 7.38117L16.2547 4.30617V14.9062L8.91594 11.8312ZM17.7747 8.04367V11.1687C18.1684 11.1687 18.5459 11.004 18.8243 10.711C19.1027 10.418 19.2591 10.0206 19.2591 9.60617C19.2591 9.19177 19.1027 8.79434 18.8243 8.50131C18.5459 8.20829 18.1684 8.04367 17.7747 8.04367Z" fill="#448DC9"/>
</g>
<defs>
<clipPath id="clip0_1534_8021">
<rect width="19" height="20" fill="white" transform="translate(0.164062 0.393555)"/>
</clipPath>
</defs>
</svg>
