<svg width="25" height="25" viewBox="0 0 25 25" fill="none" xmlns="http://www.w3.org/2000/svg">
<path d="M10.4134 2.45557C5.81091 2.45557 2.08008 6.1864 2.08008 10.7889C2.08008 15.3914 5.81091 19.1222 10.4134 19.1222C15.0159 19.1222 18.7467 15.3914 18.7467 10.7889C18.7467 6.1864 15.0159 2.45557 10.4134 2.45557Z" stroke="#448DC9" stroke-width="1.5" stroke-linecap="round" stroke-linejoin="round"/>
<path d="M3.9707 16.0774C3.9707 16.0774 5.8282 13.7057 10.4115 13.7057C14.9949 13.7057 16.8532 16.0774 16.8532 16.0774M10.4115 10.7891C11.0746 10.7891 11.7105 10.5257 12.1793 10.0568C12.6481 9.58799 12.9115 8.9521 12.9115 8.28906C12.9115 7.62602 12.6481 6.99014 12.1793 6.5213C11.7105 6.05245 11.0746 5.78906 10.4115 5.78906C9.7485 5.78906 9.11261 6.05245 8.64377 6.5213C8.17493 6.99014 7.91154 7.62602 7.91154 8.28906C7.91154 8.9521 8.17493 9.58799 8.64377 10.0568C9.11261 10.5257 9.7485 10.7891 10.4115 10.7891V10.7891Z" stroke="#448DC9" stroke-width="1.5" stroke-linecap="round" stroke-linejoin="round"/>
</svg>
