<svg width="25" height="25" viewBox="0 0 25 25" fill="none" xmlns="http://www.w3.org/2000/svg">
<g clip-path="url(#clip0_1_3276)">
<path d="M18.4199 4.18091L14.3339 0.167847C14.2244 0.0602722 14.077 0 13.9233 0H3.59326C2.38782 0 1.40698 0.980682 1.40698 2.18628V17.8137C1.40698 19.0192 2.38766 20 3.59326 20H16.409C17.6144 20 18.5952 19.0193 18.5952 17.8137V4.599C18.5952 4.44168 18.5321 4.29108 18.4199 4.18091ZM14.5092 1.98273L16.5765 4.01306H14.6956C14.5929 4.01306 14.5092 3.92944 14.5092 3.82675V1.98273ZM16.409 18.8281H3.59326C3.03403 18.8281 2.57886 18.3731 2.57886 17.8137V2.18628C2.57886 1.62689 3.03387 1.17188 3.59326 1.17188H13.3375V3.82675C13.3375 4.57565 13.9468 5.18494 14.6957 5.18494H17.4234V17.8137C17.4234 18.3731 16.9684 18.8281 16.409 18.8281Z" fill="#448DC9"/>
<path d="M14.0688 9.29688H5.80896C5.48532 9.29688 5.22302 9.55917 5.22302 9.88281C5.22302 10.2065 5.48532 10.4688 5.80896 10.4688H14.0688C14.3925 10.4688 14.6548 10.2065 14.6548 9.88281C14.6548 9.55917 14.3925 9.29688 14.0688 9.29688Z" fill="#448DC9"/>
<path d="M5.80896 12.8125H12.5439C12.8675 12.8125 13.1298 12.5502 13.1298 12.2266C13.1298 11.9029 12.8675 11.6406 12.5439 11.6406H5.80896C5.48532 11.6406 5.22302 11.9029 5.22302 12.2266C5.22302 12.5502 5.48532 12.8125 5.80896 12.8125Z" fill="#448DC9"/>
<path d="M13.3564 13.9844H5.80896C5.48532 13.9844 5.22302 14.2467 5.22302 14.5703C5.22302 14.894 5.48532 15.1562 5.80896 15.1562H13.3564C13.6799 15.1562 13.9424 14.894 13.9424 14.5703C13.9424 14.2467 13.6799 13.9844 13.3564 13.9844Z" fill="#448DC9"/>
</g>
<defs>
<clipPath id="clip0_1_3276">
<rect width="25" height="25" fill="white" transform="translate(0.000732422)"/>
</clipPath>
</defs>
</svg>
