<svg width="24" height="24" viewBox="0 0 24 24" fill="none" xmlns="http://www.w3.org/2000/svg">
<path d="M15.1841 23.332H10.6481C7.7081 23.332 5.27209 20.98 5.27209 18.04C5.27209 17.704 5.52409 17.368 5.94409 17.368C6.36409 17.368 6.61609 17.62 6.61609 18.04C6.61609 20.308 8.46409 22.072 10.7321 22.072H15.2681C15.8561 22.072 16.5281 21.736 16.8641 21.232L21.4001 14.428C21.7361 13.84 21.9881 13.168 21.9881 12.496V12.16C21.9881 11.236 21.2321 10.564 20.3081 10.564H15.0161C14.6801 10.564 14.3441 10.396 14.1761 10.144C14.0081 9.89204 13.9241 9.55604 14.0081 9.30404L15.1001 4.43204C15.2681 3.92804 14.8481 3.50804 14.7641 3.42404L13.5041 2.33204C13.4201 2.33204 13.3361 2.24804 13.2521 2.24804C13.1681 2.24804 13.0841 2.33204 13.0001 2.41604C9.22009 8.46404 6.70009 11.32 6.53209 11.488C6.28009 11.74 5.9441 11.74 5.6081 11.572C5.2721 11.404 5.35609 10.984 5.52409 10.648C5.52409 10.648 8.12809 7.70804 11.8241 1.74404C12.0761 1.32404 12.4961 1.07204 12.9161 0.988037C13.3361 0.904037 13.8401 1.07204 14.1761 1.32404L15.4361 2.41604C16.1081 3.08804 16.3601 3.92804 16.1081 4.68404L15.1001 9.30404H20.1401C21.7361 9.30404 23.0801 10.564 23.0801 12.16V12.496C23.0801 13.336 22.8281 14.344 22.3241 15.1L17.7881 21.904C17.2841 22.66 16.1921 23.332 15.1841 23.332Z" fill="white"/>
<path d="M5.60804 22.408H2.08004C1.49204 22.408 0.988037 21.988 0.988037 21.316V9.55599C0.988037 8.96799 1.40804 8.46399 2.08004 8.46399H5.60804C6.19604 8.46399 6.70004 8.88399 6.70004 9.55599V21.316C6.70004 21.82 6.19604 22.408 5.60804 22.408ZM2.33204 21.148H5.44004V9.72399H2.33204V21.148Z" fill="white"/>
</svg>
