<svg width="24" height="24" viewBox="0 0 24 24" fill="none" xmlns="http://www.w3.org/2000/svg">
<g clip-path="url(#clip0_250_3147)">
<path d="M18.3713 9.17316L16.8824 5.90728C16.791 5.7068 16.5909 5.57812 16.3706 5.57812H7.62952C7.40916 5.57812 7.20909 5.7068 7.11769 5.90728L5.62884 9.17316C5.59552 9.24591 5.57817 9.32648 5.57817 9.4065V17.8594C5.57817 18.1701 5.83003 18.4219 6.14067 18.4219H17.8594C18.1701 18.4219 18.4219 18.1701 18.4219 17.8594C18.4219 17.8594 18.4219 9.40706 18.4219 9.4065C18.4219 9.32128 18.4014 9.23438 18.3713 9.17316ZM7.9913 6.70312H16.0088L16.9848 8.844H7.01531L7.9913 6.70312ZM6.70317 17.2969V9.969H17.2969V17.2969H6.70317ZM13.7433 13.3758C13.963 13.5955 13.9629 13.9516 13.7433 14.1713L12.3977 15.5167C12.2879 15.6266 12.144 15.6815 12 15.6815C11.856 15.6815 11.7121 15.6266 11.6023 15.5167L10.2568 14.1713C10.0371 13.9516 10.0371 13.5955 10.2568 13.3758C10.4765 13.1561 10.8326 13.1561 11.0523 13.3758L11.4375 13.761V11.7593C11.4375 11.4487 11.6894 11.1968 12 11.1968C12.3106 11.1968 12.5625 11.4487 12.5625 11.7593V13.761L12.9478 13.3757C13.1675 13.1562 13.5236 13.1562 13.7433 13.3758ZM12 0C5.38317 0 0 5.38317 0 12C0 18.6168 5.38317 24 12 24C18.6168 24 24 18.6168 24 12C24 5.38317 18.6168 0 12 0ZM12 22.875C6.00352 22.875 1.125 17.9965 1.125 12C1.125 6.00352 6.00352 1.125 12 1.125C17.9965 1.125 22.875 6.00352 22.875 12C22.875 17.9965 17.9965 22.875 12 22.875Z" fill="white"/>
</g>
<defs>
<clipPath id="clip0_250_3147">
<rect width="24" height="24" fill="white"/>
</clipPath>
</defs>
</svg>
