<svg width="17" height="24" viewBox="0 0 17 24" fill="none" xmlns="http://www.w3.org/2000/svg">
<path d="M6.05999 18.124H0.515993C0.179993 18.124 0.0119934 17.872 0.0119934 17.62V16.36C0.0119934 16.024 0.263993 15.856 0.515993 15.856H5.97599C6.31199 15.856 6.47999 16.108 6.47999 16.36V17.704C6.47999 17.956 6.31199 18.124 6.05999 18.124ZM0.851993 17.284H5.63999V16.696H0.851993V17.284Z" fill="white"/>
<path d="M11.184 23.416H4.884C4.548 23.416 4.128 23.164 3.96 22.912C3.708 22.576 3.708 22.156 3.96 21.82C4.044 21.736 4.044 21.652 4.212 21.568L5.556 19.972C5.724 19.804 5.976 19.804 6.144 19.888C6.312 20.056 6.312 20.308 6.228 20.476L4.8 22.156L4.716 22.24C4.716 22.24 4.716 22.24 4.716 22.324V22.408L4.8 22.492C4.8 22.492 4.884 22.576 5.052 22.576H11.352C11.436 22.576 11.52 22.576 11.52 22.492C11.52 22.408 11.604 22.324 11.52 22.24L9.924 20.644C9.756 20.476 9.756 20.224 9.924 20.056C10.092 19.888 10.344 19.888 10.512 20.056L12.108 21.652C12.444 21.988 12.444 22.492 12.276 22.828C11.94 23.164 11.604 23.416 11.184 23.416Z" fill="white"/>
<path d="M7.992 21.064C7.06801 21.064 6.31201 20.98 5.64001 20.728C4.21201 20.224 2.95201 19.3 2.02801 17.956C1.86001 17.788 1.94401 17.536 2.11201 17.368C2.28001 17.2 2.53201 17.284 2.70001 17.452C3.54001 18.628 4.63201 19.468 5.97601 19.888C6.56401 20.14 7.236 20.224 7.992 20.224C8.664 20.224 9.33601 20.056 10.008 19.888C12.612 18.964 14.376 16.528 14.376 13.84C14.376 11.656 13.284 10.144 12.36 9.30397C12.192 9.13597 12.192 8.88397 12.36 8.71597C12.528 8.54797 12.78 8.54797 12.948 8.71597C14.376 10.144 15.132 11.992 15.132 13.924C15.132 17.032 13.116 19.804 10.176 20.812C9.50401 20.896 8.83201 21.064 7.992 21.064Z" fill="white"/>
<path d="M10.848 10.984C9.58799 10.984 8.57999 9.976 8.57999 8.716C8.57999 7.456 9.58799 6.448 10.848 6.448C12.108 6.448 13.116 7.456 13.116 8.716C13.116 9.976 12.108 10.984 10.848 10.984ZM10.848 7.288C10.092 7.288 9.41999 7.96 9.41999 8.716C9.41999 9.472 10.092 10.144 10.848 10.144C11.604 10.144 12.276 9.472 12.276 8.716C12.276 7.96 11.604 7.288 10.848 7.288Z" fill="white"/>
<path d="M7.32001 12.496C7.15201 12.496 6.98401 12.412 6.81601 12.328L6.31201 11.824L4.04401 9.38801C3.96001 9.30401 3.87601 9.13601 3.87601 8.88401C3.87601 8.71601 3.96001 8.54801 4.04401 8.38001L11.688 1.32401C11.94 1.07201 12.36 1.07201 12.612 1.32401L13.032 1.82801L15.3 4.26401C15.552 4.51601 15.552 4.93601 15.3 5.18801L12.528 7.79201C12.36 7.96001 12.108 7.96001 11.94 7.79201C11.772 7.62401 11.772 7.37201 11.94 7.20401L14.544 4.68401L14.124 4.18001L12.192 2.08001L4.80001 8.88401L5.22001 9.30401L7.32001 11.572L9.33601 9.72401C9.50401 9.55601 9.75601 9.55601 9.92401 9.72401C10.092 9.89201 10.092 10.144 9.92401 10.312L7.82401 12.244C7.65601 12.412 7.48801 12.496 7.32001 12.496Z" fill="white"/>
<path d="M14.544 4.43199C14.46 4.43199 14.292 4.34799 14.208 4.26399L12.444 2.41599C12.36 2.33199 12.36 2.24799 12.36 2.16399C12.36 2.07999 12.444 1.91199 12.528 1.82799L13.704 0.735993C13.872 0.567993 14.04 0.567993 14.124 0.567993C14.208 0.567993 14.376 0.567993 14.544 0.735993L16.056 2.33199C16.224 2.49999 16.308 2.75199 16.224 3.00399C16.224 3.08799 16.14 3.17199 16.056 3.17199L14.88 4.26399C14.712 4.43199 14.628 4.43199 14.544 4.43199ZM13.368 2.16399L14.544 3.42399L15.216 2.75199L14.04 1.57599L13.368 2.16399Z" fill="white"/>
<path d="M4.96798 13.336C4.71598 13.336 4.54798 13.252 4.37998 13.084L3.11998 11.74C2.95198 11.572 2.86798 11.32 2.86798 11.068C2.86798 10.9 3.03598 10.732 3.11998 10.648L4.54798 9.30398C4.71598 9.13598 4.96798 9.13598 5.13598 9.30398L6.89998 11.152C6.98398 11.236 6.98398 11.32 6.98398 11.488C6.98398 11.572 6.89998 11.74 6.81598 11.824L5.38798 13.168C5.38798 13.252 5.13598 13.336 4.96798 13.336ZM3.79198 11.236L4.96798 12.496L6.05998 11.488L4.88398 10.228L3.79198 11.236Z" fill="white"/>
<path d="M7.992 19.384C6.648 19.384 5.304 18.88 4.38 18.04C4.212 17.872 4.212 17.62 4.38 17.452C4.548 17.284 4.8 17.284 4.968 17.452C5.724 18.124 6.9 18.628 8.076 18.628C10.68 18.628 12.78 16.528 12.78 13.924C12.78 12.664 12.276 11.572 11.436 10.732C11.268 10.564 11.268 10.312 11.436 10.144C11.604 9.97601 11.856 9.97601 12.024 10.144C13.032 11.152 13.536 12.496 13.536 14.008C13.536 16.948 11.1 19.384 7.992 19.384Z" fill="white"/>
</svg>
