<svg width="20" height="22" viewBox="0 0 20 22" fill="none" xmlns="http://www.w3.org/2000/svg">
<path d="M13.1001 20.988C12.7641 20.988 12.4281 20.904 12.1761 20.82C11.0841 20.652 10.1601 20.232 9.06806 19.56C7.55606 18.72 6.38006 17.46 5.20406 16.284C4.02806 14.94 2.93606 13.596 2.09606 12.168C1.34006 10.74 0.92006 9.564 0.75206 8.388C0.58406 6.708 0.83606 5.28 1.50806 4.02C1.84406 3.264 2.43206 2.676 3.10406 2.172C3.35606 1.92 3.60806 1.668 4.02806 1.416C4.78406 0.828 5.87606 0.828 6.54806 1.584C6.88406 1.92 7.22006 2.34 7.47206 2.676C7.55606 2.844 7.72406 3.012 7.80806 3.18C8.14406 3.768 8.56406 4.356 8.73206 5.028C9.06806 6.204 8.81606 7.128 8.06006 7.8C7.72406 8.136 7.38806 8.388 7.05206 8.64C6.54806 8.976 6.46406 9.312 6.63206 9.9C6.88406 10.572 7.30406 11.244 7.80806 11.832C8.48006 12.672 9.06806 13.428 9.90806 14.1C10.4121 14.52 10.8321 14.688 11.1681 14.856C11.1681 14.856 11.2521 14.856 11.3361 14.856C11.5041 14.856 11.6721 14.772 11.9241 14.604C12.1761 14.436 12.3441 14.268 12.5121 14.1C12.6801 13.932 12.9321 13.68 13.1841 13.512C13.9401 12.84 14.9481 12.672 15.9561 13.26C16.2921 13.344 16.5441 13.596 16.7961 13.848C17.5521 14.436 18.3081 15.024 18.9801 15.948C19.6521 16.872 19.5681 17.796 18.7281 18.636C18.5601 18.804 18.3921 18.888 18.2241 19.056C17.8041 19.476 17.3001 19.896 16.7121 20.232C15.8721 20.736 15.0321 20.988 14.1921 21.072H14.1081C13.6881 20.988 13.4361 20.988 13.1001 20.988ZM5.12006 2.172C4.95206 2.172 4.86806 2.256 4.70006 2.34C4.70006 2.34 4.61606 2.424 4.53206 2.424C4.28006 2.508 4.11206 2.76 3.86006 3.012L3.77606 3.096C3.27206 3.432 2.85206 3.936 2.51606 4.524C1.92806 5.532 1.76006 6.708 1.92806 8.136C2.09606 9.144 2.43206 10.152 3.10406 11.412C3.94406 12.756 4.86806 14.1 6.04406 15.276C7.13606 16.368 8.31206 17.544 9.65606 18.384C10.6641 18.972 11.5041 19.308 12.3441 19.476H12.4281C12.6801 19.56 12.8481 19.644 13.0161 19.644C13.1841 19.644 13.4361 19.644 13.5201 19.644C13.6041 19.56 13.6881 19.56 13.7721 19.56H13.9401C14.5281 19.476 15.2001 19.224 15.8721 18.888C16.2921 18.636 16.7121 18.216 17.1321 17.88C17.3001 17.712 17.4681 17.628 17.6361 17.46C18.0561 17.04 17.9721 16.788 17.7201 16.452C17.2161 15.696 16.4601 15.108 15.7041 14.52C15.5361 14.352 15.3681 14.268 15.2001 14.184C15.2001 14.184 15.1161 14.184 15.1161 14.1C14.8641 13.932 14.6121 13.848 14.4441 13.848C14.2761 13.848 14.1081 13.848 13.7721 14.184C13.5201 14.352 13.3521 14.52 13.1841 14.688C13.0161 14.856 12.7641 15.108 12.5121 15.276C12.0081 15.78 11.4201 15.948 10.6641 15.864C9.99206 15.696 9.48806 15.36 8.90006 14.856C7.97606 14.1 7.30406 13.26 6.63206 12.42C6.12806 11.664 5.54006 10.992 5.28806 10.152C4.86806 9.06 5.12006 8.052 6.12806 7.38C6.46406 7.128 6.71606 6.96 7.05206 6.624C7.55606 6.204 7.64006 5.784 7.38806 5.112C7.22006 4.608 6.88406 4.104 6.54806 3.6C6.46406 3.432 6.38006 3.264 6.29606 3.18C6.04406 2.928 5.87606 2.592 5.54006 2.256C5.45606 2.34 5.28806 2.172 5.12006 2.172Z" fill="white"/>
</svg>
