<svg width="25" height="25" viewBox="0 0 25 25" fill="none" xmlns="http://www.w3.org/2000/svg">
<g clip-path="url(#clip0_1492_5149)">
<path d="M17.0859 3.51891C16.8818 3.37989 16.6483 3.29578 16.4061 3.27399C16.1638 3.25219 15.9202 3.29337 15.6966 3.39391L8.36969 6.43141C8.19622 6.50572 8.01072 6.54393 7.82344 6.54391H3.13281C2.73913 6.54391 2.36158 6.70853 2.0832 7.00156C1.80483 7.29458 1.64844 7.69201 1.64844 8.10641V8.23141H0.164062V11.9814H1.64844V12.1439C1.65774 12.5518 1.81823 12.9396 2.0956 13.2246C2.37297 13.5096 2.74523 13.669 3.13281 13.6689L4.91406 17.6439C5.03468 17.9116 5.22457 18.138 5.46193 18.2972C5.69929 18.4564 5.9745 18.5419 6.25594 18.5439H7.00406C7.39568 18.5406 7.77019 18.3745 8.04601 18.0819C8.32182 17.7892 8.47657 17.3937 8.47656 16.9814V13.8189L15.6966 16.8564C15.8742 16.9308 16.0636 16.969 16.2547 16.9689C16.5512 16.9639 16.84 16.8683 17.0859 16.6939C17.2813 16.5551 17.4424 16.3693 17.5559 16.152C17.6695 15.9346 17.7323 15.6919 17.7391 15.4439V4.80641C17.738 4.55206 17.6779 4.30183 17.5641 4.07745C17.4503 3.85308 17.2861 3.66135 17.0859 3.51891ZM6.99219 8.10641V12.1439H3.13281V8.10641H6.99219ZM6.99219 16.9814H6.24406L4.78344 13.6689H6.99219V16.9814ZM8.91594 12.3314C8.77494 12.2556 8.62793 12.1928 8.47656 12.1439V8.01891C8.62648 7.98635 8.77347 7.94035 8.91594 7.88141L16.2547 4.80641V15.4064L8.91594 12.3314ZM17.7747 8.54391V11.6689C18.1684 11.6689 18.5459 11.5043 18.8243 11.2113C19.1027 10.9182 19.2591 10.5208 19.2591 10.1064C19.2591 9.69201 19.1027 9.29458 18.8243 9.00156C18.5459 8.70853 18.1684 8.54391 17.7747 8.54391Z" fill="#6D728E"/>
</g>
<defs>
<clipPath id="clip0_1492_5149">
<rect width="19" height="20" fill="white" transform="translate(0.164062 0.893799)"/>
</clipPath>
</defs>
</svg>
