<svg width="25" height="25" viewBox="0 0 25 25" fill="none" xmlns="http://www.w3.org/2000/svg">
<path d="M12.1641 15.8937C14.2351 15.8937 15.9141 14.2148 15.9141 12.1437C15.9141 10.0726 14.2351 8.39371 12.1641 8.39371C10.093 8.39371 8.41406 10.0726 8.41406 12.1437C8.41406 14.2148 10.093 15.8937 12.1641 15.8937Z" stroke="#6D728E" stroke-width="1.5" stroke-linecap="round" stroke-linejoin="round"/>
<path d="M6.14453 19.5875C6.70882 18.476 7.56987 17.5425 8.63223 16.8904C9.69459 16.2383 10.9168 15.8931 12.1633 15.8931C13.4098 15.8931 14.632 16.2383 15.6943 16.8904C16.7567 17.5425 17.6177 18.476 18.182 19.5875" stroke="#6D728E" stroke-width="1.5" stroke-linecap="round" stroke-linejoin="round"/>
<path d="M18.9141 12.8937L21.1641 15.1437L23.4141 12.8937" stroke="#6D728E" stroke-width="1.5" stroke-linecap="round" stroke-linejoin="round"/>
<path d="M0.914062 12.8937L3.16406 10.6437L5.41406 12.8937" stroke="#6D728E" stroke-width="1.5" stroke-linecap="round" stroke-linejoin="round"/>
<path d="M21.1633 15.1437V12.8937C21.1654 10.9492 20.5377 9.05632 19.3741 7.49838C18.2106 5.94043 16.5737 4.80124 14.7086 4.25131C12.8435 3.70138 10.8504 3.77029 9.02775 4.44774C7.20508 5.12519 5.65083 6.37474 4.59766 8.00933" stroke="#6D728E" stroke-width="1.5" stroke-linecap="round" stroke-linejoin="round"/>
<path d="M3.16407 10.6437V12.8937C3.16195 14.8382 3.78965 16.7311 4.95322 18.289C6.11678 19.847 7.75363 20.9862 9.61875 21.5361C11.4839 22.086 13.4769 22.0171 15.2996 21.3397C17.1223 20.6622 18.6765 19.4127 19.7297 17.7781" stroke="#6D728E" stroke-width="1.5" stroke-linecap="round" stroke-linejoin="round"/>
</svg>
