<svg width="26" height="20" viewBox="0 0 26 20" fill="none" xmlns="http://www.w3.org/2000/svg">
<path d="M21.644 19.988H4.50803C2.24003 19.988 0.392029 18.14 0.392029 15.872V4.28C0.392029 2.012 2.24003 0.164001 4.50803 0.164001H21.728C23.996 0.164001 25.76 2.012 25.76 4.28V15.872C25.676 18.14 23.828 19.988 21.644 19.988ZM4.50803 1.424C2.99603 1.424 1.65203 2.684 1.65203 4.28V15.872C1.65203 17.384 2.91203 18.728 4.50803 18.728H21.644C23.156 18.728 24.5 17.468 24.584 15.872V4.28C24.584 2.768 23.324 1.424 21.812 1.424H4.50803Z" fill="white"/>
<path d="M13.0761 13.772C12.9081 13.772 12.7401 13.688 12.6561 13.604L7.86805 8.98401L3.08005 4.36401C2.82805 4.11201 2.82805 3.69201 3.08005 3.44001C3.33205 3.18801 3.75205 3.18801 4.00405 3.44001L8.79205 7.97601L13.1601 12.176L17.5281 7.97601L22.3161 3.44001C22.5681 3.18801 22.9881 3.18801 23.2401 3.44001C23.4921 3.69201 23.4921 4.11201 23.2401 4.36401L18.4521 8.90001L13.4961 13.52C13.4121 13.688 13.2441 13.772 13.0761 13.772Z" fill="white"/>
<path d="M3.50005 17.132C3.33205 17.132 3.16405 17.048 3.08005 16.964C2.82805 16.712 2.82805 16.292 3.08005 16.04L9.71605 9.74001C9.96805 9.48801 10.3881 9.48801 10.6401 9.74001C10.8921 9.99201 10.8921 10.412 10.6401 10.664L3.92005 16.964C3.83605 17.132 3.66805 17.132 3.50005 17.132Z" fill="white"/>
<path d="M22.652 17.132C22.484 17.132 22.316 17.048 22.232 16.964L15.596 10.664C15.344 10.412 15.344 9.99201 15.596 9.74001C15.848 9.48801 16.268 9.48801 16.52 9.74001L23.156 16.04C23.408 16.292 23.408 16.712 23.156 16.964C22.988 17.132 22.82 17.132 22.652 17.132Z" fill="white"/>
</svg>
