<svg width="25" height="25" viewBox="0 0 25 25" fill="none" xmlns="http://www.w3.org/2000/svg">
<g clip-path="url(#clip0_235_2806)">
<g clip-path="url(#clip1_235_2806)">
<path d="M23.9177 12.9867C23.8193 12.7315 23.6457 12.5121 23.4199 12.3576C23.1941 12.2032 22.9267 12.1209 22.6531 12.1217H21.1331V3.05957C21.1331 2.51334 20.9162 1.98948 20.5299 1.60324C20.1437 1.21699 19.6198 1 19.0736 1H5.06847C4.52223 1 3.99837 1.21699 3.61213 1.60324C3.22588 1.98948 3.00889 2.51334 3.00889 3.05957V12.1217H1.48481C1.21164 12.1208 0.944563 12.2024 0.718608 12.3559C0.492653 12.5095 0.318366 12.7277 0.218604 12.982C0.118842 13.2363 0.0982621 13.5148 0.159563 13.781C0.220863 14.0472 0.361182 14.2887 0.562119 14.4737L10.0444 23.2434C10.5879 23.7698 11.3143 24.0651 12.071 24.0672C12.8228 24.0652 13.5441 23.7696 14.0812 23.2434L23.5552 14.4531C23.7548 14.2726 23.8959 14.0366 23.9605 13.7753C24.0251 13.5141 24.0102 13.2395 23.9177 12.9867ZM12.9525 22.0736C12.7149 22.3048 12.3964 22.4342 12.0648 22.4342C11.7333 22.4342 11.4148 22.3048 11.1772 22.0736L2.22625 13.7694H3.83272C4.05122 13.7694 4.26076 13.6826 4.41526 13.5281C4.56976 13.3736 4.65655 13.164 4.65655 12.9455V3.05957C4.65655 2.95033 4.69995 2.84556 4.7772 2.76831C4.85445 2.69106 4.95922 2.64766 5.06847 2.64766H19.0736C19.1828 2.64766 19.2876 2.69106 19.3648 2.76831C19.4421 2.84556 19.4855 2.95033 19.4855 3.05957V12.9455C19.4855 13.164 19.5723 13.3736 19.7268 13.5281C19.8813 13.6826 20.0908 13.7694 20.3093 13.7694H21.9158L12.9525 22.0736Z" fill="white" stroke="white" stroke-width="0.1"/>
<path d="M12.071 10.0621H11.2471C11.0286 10.0621 10.8191 9.97533 10.6646 9.82083C10.5101 9.66634 10.4233 9.45679 10.4233 9.2383C10.4233 9.01981 10.5101 8.81026 10.6646 8.65576C10.8191 8.50127 11.0286 8.41447 11.2471 8.41447H13.3067C13.5252 8.41447 13.7347 8.32767 13.8892 8.17318C14.0437 8.01868 14.1305 7.80913 14.1305 7.59064C14.1305 7.37215 14.0437 7.1626 13.8892 7.00811C13.7347 6.85361 13.5252 6.76681 13.3067 6.76681H12.8948V6.3549C12.8948 6.1364 12.808 5.92686 12.6535 5.77236C12.499 5.61786 12.2894 5.53107 12.071 5.53107C11.8525 5.53107 11.6429 5.61786 11.4884 5.77236C11.3339 5.92686 11.2471 6.1364 11.2471 6.3549V6.76681C10.5916 6.76681 9.96301 7.0272 9.49952 7.49069C9.03602 7.95419 8.77563 8.58282 8.77563 9.2383C8.77563 9.89378 9.03602 10.5224 9.49952 10.9859C9.96301 11.4494 10.5916 11.7098 11.2471 11.7098H12.071C12.2894 11.7098 12.499 11.7966 12.6535 11.9511C12.808 12.1056 12.8948 12.3151 12.8948 12.5336V12.9455C12.8948 13.164 12.808 13.3736 12.6535 13.5281C12.499 13.6826 12.2894 13.7694 12.071 13.7694H10.0114C9.79289 13.7694 9.58334 13.8562 9.42884 14.0107C9.27435 14.1652 9.18755 14.3747 9.18755 14.5932C9.18755 14.8117 9.27435 15.0212 9.42884 15.1757C9.58334 15.3302 9.79289 15.417 10.0114 15.417H10.4233V15.8289C10.4233 16.0474 10.5101 16.257 10.6646 16.4115C10.8191 16.566 11.0286 16.6528 11.2471 16.6528C11.4656 16.6528 11.6752 16.566 11.8297 16.4115C11.9842 16.257 12.071 16.0474 12.071 15.8289V15.417C12.7264 15.417 13.3551 15.1566 13.8186 14.6931C14.2821 14.2296 14.5424 13.601 14.5424 12.9455V12.5336C14.5424 11.8781 14.2821 11.2495 13.8186 10.786C13.3551 10.3225 12.7264 10.0621 12.071 10.0621Z" fill="white" stroke="white" stroke-width="0.1"/>
</g>
</g>
<defs>
<clipPath id="clip0_235_2806">
<rect width="25" height="25" fill="white"/>
</clipPath>
<clipPath id="clip1_235_2806">
<rect width="27" height="27" fill="white" transform="translate(-1 1)"/>
</clipPath>
</defs>
</svg>
