<svg width="25" height="25" viewBox="0 0 25 25" fill="none" xmlns="http://www.w3.org/2000/svg">
<path d="M7.28906 11.3937C9.15302 11.3937 10.6641 9.88266 10.6641 8.0187C10.6641 6.15474 9.15302 4.6437 7.28906 4.6437C5.4251 4.6437 3.91406 6.15474 3.91406 8.0187C3.91406 9.88266 5.4251 11.3937 7.28906 11.3937Z" stroke="#6D728E" stroke-width="1.5" stroke-linecap="round" stroke-linejoin="round"/>
<path d="M17.0391 11.3937C18.903 11.3937 20.4141 9.88266 20.4141 8.0187C20.4141 6.15474 18.903 4.6437 17.0391 4.6437C15.1751 4.6437 13.6641 6.15474 13.6641 8.0187C13.6641 9.88266 15.1751 11.3937 17.0391 11.3937Z" stroke="#6D728E" stroke-width="1.5" stroke-linecap="round" stroke-linejoin="round"/>
<path d="M7.28906 21.1437C9.15302 21.1437 10.6641 19.6327 10.6641 17.7687C10.6641 15.9047 9.15302 14.3937 7.28906 14.3937C5.4251 14.3937 3.91406 15.9047 3.91406 17.7687C3.91406 19.6327 5.4251 21.1437 7.28906 21.1437Z" stroke="#6D728E" stroke-width="1.5" stroke-linecap="round" stroke-linejoin="round"/>
<path d="M17.0391 15.1437V20.3937" stroke="#6D728E" stroke-width="1.5" stroke-linecap="round" stroke-linejoin="round"/>
<path d="M19.6641 17.7687H14.4141" stroke="#6D728E" stroke-width="1.5" stroke-linecap="round" stroke-linejoin="round"/>
</svg>
