<svg width="23" height="23" viewBox="0 0 23 23" fill="none" xmlns="http://www.w3.org/2000/svg">
<path fill-rule="evenodd" clip-rule="evenodd" d="M11.875 1C9.72413 1 7.62156 1.63781 5.83318 2.83277C4.04479 4.02773 2.65092 5.72617 1.82781 7.71332C1.00471 9.70046 0.789351 11.8871 1.20896 13.9966C1.62858 16.1062 2.66432 18.0439 4.18522 19.5648C5.70611 21.0857 7.64385 22.1214 9.7534 22.541C11.8629 22.9607 14.0495 22.7453 16.0367 21.9222C18.0238 21.0991 19.7223 19.7052 20.9172 17.9168C22.1122 16.1284 22.75 14.0259 22.75 11.875C22.7486 8.9912 21.6024 6.22591 19.5633 4.18675C17.5241 2.14759 14.7588 1.00139 11.875 1ZM11.875 22C9.87247 22 7.9149 21.4062 6.24986 20.2936C4.58481 19.1811 3.28706 17.5998 2.52072 15.7497C1.75439 13.8996 1.55388 11.8638 1.94455 9.89971C2.33523 7.93565 3.29954 6.13155 4.71555 4.71554C6.13156 3.29954 7.93566 2.33522 9.89972 1.94455C11.8638 1.55387 13.8996 1.75438 15.7497 2.52072C17.5998 3.28706 19.1811 4.5848 20.2936 6.24985C21.4062 7.9149 22 9.87246 22 11.875C21.9988 14.56 20.9317 17.1346 19.0331 19.0331C17.1346 20.9317 14.56 21.9988 11.875 22Z" fill="white" stroke="white" stroke-width="0.2"/>
<path fill-rule="evenodd" clip-rule="evenodd" d="M18.625 11.5H18.025C17.976 10.6734 17.7596 9.86529 17.389 9.12475L17.9088 8.82475C17.9942 8.77467 18.0563 8.69283 18.0816 8.59709C18.107 8.50136 18.0934 8.3995 18.0439 8.31374C17.9943 8.22798 17.9129 8.16529 17.8174 8.13934C17.7218 8.1134 17.6198 8.12631 17.5338 8.17525L17.0133 8.47525C16.5553 7.78568 15.964 7.19481 15.274 6.7375L15.574 6.217C15.6229 6.13092 15.6359 6.02897 15.6099 5.9334C15.584 5.83783 15.5213 5.75641 15.4355 5.7069C15.3498 5.65738 15.2479 5.6438 15.1522 5.66911C15.0564 5.69442 14.9746 5.75657 14.9245 5.842L14.6245 6.36175C13.8842 5.99106 13.0764 5.77444 12.25 5.725V5.125C12.25 5.02554 12.2105 4.93016 12.1402 4.85984C12.0698 4.78951 11.9745 4.75 11.875 4.75C11.7755 4.75 11.6802 4.78951 11.6098 4.85984C11.5395 4.93016 11.5 5.02554 11.5 5.125V5.725C10.6734 5.77406 9.8653 5.99043 9.12475 6.361L8.82475 5.84125C8.77467 5.75582 8.69284 5.69367 8.5971 5.66836C8.50136 5.64305 8.3995 5.65663 8.31374 5.70615C8.22799 5.75566 8.16529 5.83709 8.13935 5.93265C8.1134 6.02822 8.12631 6.13017 8.17526 6.21625L8.47525 6.73675C7.78582 7.19482 7.19498 7.78617 6.7375 8.476L6.21701 8.176C6.13092 8.12706 6.02897 8.11415 5.93341 8.14009C5.83784 8.16604 5.75642 8.22873 5.7069 8.31449C5.65739 8.40025 5.6438 8.50211 5.66912 8.59784C5.69443 8.69358 5.75658 8.77542 5.842 8.8255L6.36175 9.1255C5.99116 9.86581 5.77454 10.6736 5.725 11.5H5.125C5.02555 11.5 4.93017 11.5395 4.85984 11.6098C4.78951 11.6802 4.75 11.7755 4.75 11.875C4.75 11.9745 4.78951 12.0698 4.85984 12.1402C4.93017 12.2105 5.02555 12.25 5.125 12.25H5.725C5.77404 13.0766 5.99041 13.8847 6.361 14.6252L5.84125 14.9252C5.75583 14.9753 5.69368 15.0572 5.66837 15.1529C5.64305 15.2486 5.65664 15.3505 5.70615 15.4363C5.75567 15.522 5.83709 15.5847 5.93266 15.6107C6.02822 15.6366 6.13017 15.6237 6.21625 15.5748L6.73675 15.2748C7.19437 15.9645 7.78549 16.5556 8.47525 17.0133L8.17526 17.5338C8.12631 17.6198 8.1134 17.7218 8.13935 17.8173C8.16529 17.9129 8.22799 17.9943 8.31374 18.0439C8.3995 18.0934 8.50136 18.1069 8.5971 18.0816C8.69284 18.0563 8.77467 17.9942 8.82475 17.9088L9.12475 17.389C9.86532 17.7595 10.6734 17.9759 11.5 18.025V18.625C11.5 18.7245 11.5395 18.8198 11.6098 18.8902C11.6802 18.9605 11.7755 19 11.875 19C11.9745 19 12.0698 18.9605 12.1402 18.8902C12.2105 18.8198 12.25 18.7245 12.25 18.625V18.025C13.0766 17.9759 13.8847 17.7596 14.6253 17.389L14.9253 17.9088C14.9753 17.9942 15.0572 18.0563 15.1529 18.0816C15.2486 18.1069 15.3505 18.0934 15.4363 18.0439C15.522 17.9943 15.5847 17.9129 15.6107 17.8173C15.6366 17.7218 15.6237 17.6198 15.5748 17.5338L15.2748 17.0133C15.9644 16.5555 16.5555 15.9644 17.0133 15.2748L17.5338 15.5748C17.6198 15.6237 17.7218 15.6366 17.8174 15.6107C17.9129 15.5847 17.9943 15.522 18.0439 15.4363C18.0934 15.3505 18.107 15.2486 18.0816 15.1529C18.0563 15.0572 17.9942 14.9753 17.9088 14.9252L17.389 14.6252C17.7594 13.8847 17.9758 13.0766 18.025 12.25H18.625C18.7245 12.25 18.8198 12.2105 18.8902 12.1402C18.9605 12.0698 19 11.9745 19 11.875C19 11.7755 18.9605 11.6802 18.8902 11.6098C18.8198 11.5395 18.7245 11.5 18.625 11.5ZM11.875 17.2855C10.8049 17.2855 9.75884 16.9682 8.86909 16.3737C7.97934 15.7792 7.28586 14.9341 6.87635 13.9455C6.46685 12.9569 6.3597 11.869 6.56847 10.8195C6.77723 9.76993 7.29253 8.80587 8.0492 8.0492C8.80588 7.29253 9.76993 6.77723 10.8195 6.56846C11.869 6.3597 12.9569 6.46684 13.9455 6.87635C14.9342 7.28586 15.7792 7.97933 16.3737 8.86909C16.9682 9.75884 17.2855 10.8049 17.2855 11.875C17.2849 13.3098 16.7147 14.6856 15.7001 15.7001C14.6856 16.7147 13.3098 17.2849 11.875 17.2855Z" fill="white" stroke="white" stroke-width="0.2"/>
<path fill-rule="evenodd" clip-rule="evenodd" d="M13.9225 11.3635C13.6445 11.3637 13.3727 11.4462 13.1415 11.6007C12.9103 11.7552 12.7301 11.9747 12.6236 12.2316C12.5171 12.4884 12.4891 12.7711 12.5431 13.0438C12.5971 13.3166 12.7307 13.5672 12.927 13.7641C13.1234 13.961 13.3737 14.0953 13.6463 14.15C13.9189 14.2047 14.2016 14.1775 14.4588 14.0716C14.7159 13.9658 14.9359 13.7862 15.091 13.5554C15.2461 13.3246 15.3294 13.0531 15.3303 12.775C15.3307 12.5899 15.2945 12.4065 15.224 12.2353C15.1534 12.0641 15.0498 11.9085 14.919 11.7774C14.7883 11.6463 14.633 11.5423 14.462 11.4712C14.291 11.4002 14.1077 11.3636 13.9225 11.3635ZM13.9225 13.4283C13.7926 13.4283 13.6655 13.3897 13.5575 13.3176C13.4495 13.2454 13.3652 13.1428 13.3155 13.0227C13.2658 12.9026 13.2528 12.7705 13.2781 12.6431C13.3035 12.5157 13.3661 12.3986 13.4579 12.3067C13.5498 12.2148 13.6669 12.1523 13.7943 12.1269C13.9218 12.1015 14.0539 12.1146 14.1739 12.1643C14.294 12.214 14.3966 12.2982 14.4688 12.4063C14.541 12.5143 14.5795 12.6413 14.5795 12.7713C14.5795 12.9455 14.5103 13.1126 14.3871 13.2358C14.2639 13.3591 14.0968 13.4283 13.9225 13.4283Z" fill="white" stroke="white" stroke-width="0.2"/>
<path fill-rule="evenodd" clip-rule="evenodd" d="M10.375 12.5695C10.0967 12.5698 9.82479 12.6526 9.59357 12.8075C9.36236 12.9623 9.18225 13.1823 9.07603 13.4395C8.96982 13.6967 8.94225 13.9796 8.99683 14.2525C9.05141 14.5254 9.18569 14.7759 9.38267 14.9725C9.57965 15.169 9.8305 15.3028 10.1035 15.3568C10.3765 15.4108 10.6593 15.3826 10.9163 15.2758C11.1733 15.1691 11.3929 14.9885 11.5472 14.757C11.7016 14.5254 11.7838 14.2533 11.7835 13.975C11.7829 13.6019 11.6342 13.2443 11.3701 12.9808C11.106 12.7172 10.7481 12.5693 10.375 12.5695ZM10.375 14.6343C10.2451 14.6343 10.1181 14.5958 10.0101 14.5236C9.90205 14.4514 9.81784 14.3489 9.76809 14.2289C9.71834 14.1089 9.70528 13.9768 9.73057 13.8494C9.75586 13.7219 9.81836 13.6049 9.91017 13.513C10.002 13.4211 10.119 13.3584 10.2464 13.333C10.3738 13.3075 10.5058 13.3205 10.6259 13.3701C10.746 13.4197 10.8486 13.5038 10.9209 13.6117C10.9932 13.7197 11.0319 13.8466 11.032 13.9765C11.032 14.1508 10.9628 14.318 10.8396 14.4414C10.7164 14.5647 10.5493 14.6341 10.375 14.6343Z" fill="white" stroke="white" stroke-width="0.2"/>
<path fill-rule="evenodd" clip-rule="evenodd" d="M10.7905 8.125C10.4304 8.12515 10.0784 8.23206 9.77909 8.43221C9.47975 8.63236 9.24646 8.91677 9.10873 9.24948C8.97099 9.58219 8.93499 9.94827 9.00528 10.3014C9.07557 10.6546 9.24899 10.979 9.50361 11.2336C9.75824 11.4883 10.0826 11.6617 10.4358 11.732C10.789 11.8023 11.1551 11.7663 11.4878 11.6285C11.8205 11.4908 12.1049 11.2575 12.305 10.9582C12.5052 10.6588 12.6121 10.3068 12.6123 9.94675C12.6121 9.46365 12.4201 9.0004 12.0785 8.6588C11.7369 8.3172 11.2736 8.1252 10.7905 8.125ZM10.7905 11.0178C10.5787 11.0176 10.3717 10.9547 10.1957 10.8369C10.0197 10.7191 9.88251 10.5518 9.80157 10.3561C9.72062 10.1604 9.69952 9.94505 9.74093 9.73735C9.78234 9.52964 9.8844 9.33888 10.0342 9.18917C10.184 9.03947 10.3749 8.93754 10.5826 8.89627C10.7903 8.85501 11.0056 8.87626 11.2013 8.95735C11.3969 9.03843 11.5642 9.1757 11.6818 9.35181C11.7995 9.52792 11.8623 9.73496 11.8623 9.94675C11.8621 10.2309 11.7491 10.5033 11.5481 10.7041C11.3471 10.9049 11.0746 11.0178 10.7905 11.0178Z" fill="white" stroke="white" stroke-width="0.2"/>
</svg>
