<svg width="22" height="26" viewBox="0 0 22 26" fill="none" xmlns="http://www.w3.org/2000/svg">
<path d="M16.284 22.912C16.032 22.912 15.864 22.828 15.78 22.576C15.612 22.24 15.696 21.904 15.948 21.736C17.376 20.812 18.552 19.636 19.392 18.208C20.736 15.856 21.072 13.168 20.316 10.648C19.476 7.876 17.544 5.608 14.856 4.264C13.512 3.592 12.168 3.256 10.824 3.088C10.488 3.088 10.236 2.752 10.236 2.416C10.236 2.08 10.572 1.828 10.908 1.828C12.42 1.996 13.932 2.416 15.36 3.172C18.384 4.684 20.568 7.288 21.492 10.396C22.332 13.252 21.996 16.36 20.4 18.964C19.476 20.644 18.132 21.988 16.452 22.996C16.536 22.828 16.368 22.912 16.284 22.912Z" fill="white"/>
<path d="M11.916 0.735997C11.916 0.315997 11.496 0.0639969 11.16 0.315997L8.05201 2.248C7.63201 2.5 7.71601 2.836 8.13601 3.004L11.496 4.516C11.916 4.684 12.252 4.516 12.168 4.012L11.916 0.735997Z" fill="white"/>
<path d="M11.16 24.34C11.16 24.34 11.076 24.256 11.16 24.34C9.56401 24.172 8.05201 23.752 6.62401 22.996C3.51601 21.4 1.33201 18.88 0.492012 15.772C-0.347988 12.916 0.0720115 9.808 1.66801 7.204C2.59201 5.524 3.93601 4.18 5.61601 3.172C5.95201 3.004 6.28801 3.088 6.45601 3.34C6.62401 3.676 6.54001 4.012 6.28801 4.18C4.86001 5.104 3.68401 6.28 2.84401 7.708C1.41601 10.06 1.08001 12.748 1.83601 15.268C2.59201 18.04 4.60801 20.308 7.29601 21.736C8.64001 22.408 9.98401 22.744 11.328 22.912C11.664 22.912 11.916 23.248 11.916 23.584C11.748 24.088 11.496 24.34 11.16 24.34Z" fill="white"/>
<path d="M10.236 25.264C10.236 25.684 10.656 25.936 10.992 25.684L14.1 23.752C14.52 23.5 14.436 23.164 14.016 22.996L10.656 21.4C10.236 21.232 9.90003 21.4 9.98403 21.904L10.236 25.264Z" fill="white"/>
<path d="M6.62399 19.132C6.53999 19.132 6.45599 19.132 6.37199 19.048C6.20399 18.964 6.03599 18.712 6.03599 18.46V16.696C5.02799 16.612 4.18799 15.688 4.18799 14.68V8.79995C4.18799 7.70795 5.11199 6.69995 6.28799 6.69995H16.032C17.124 6.69995 18.132 7.62395 18.132 8.79995V14.764C18.132 15.856 17.208 16.864 16.032 16.864H10.236H10.152L6.95999 19.048C6.87599 19.132 6.79199 19.132 6.62399 19.132ZM6.20399 7.95995C5.78399 7.95995 5.36399 8.37995 5.36399 8.79995V14.764C5.36399 15.184 5.78399 15.604 6.20399 15.604C6.79199 15.604 7.29599 16.024 7.29599 16.696V17.368L9.47999 15.772C9.56399 15.688 9.64799 15.688 9.73199 15.688C9.81599 15.604 9.98399 15.604 10.152 15.604H16.032C16.452 15.604 16.872 15.184 16.872 14.764V8.79995C16.872 8.37995 16.452 7.95995 16.032 7.95995H6.20399Z" fill="white"/>
<path d="M14.856 11.236H7.29602C6.96002 11.236 6.62402 10.984 6.62402 10.564C6.62402 10.144 6.87602 9.89197 7.29602 9.89197H14.856C15.192 9.89197 15.528 10.144 15.528 10.564C15.528 10.984 15.192 11.236 14.856 11.236Z" fill="white"/>
<path d="M12.84 13.84H7.29602C6.96002 13.84 6.62402 13.588 6.62402 13.168C6.62402 12.748 6.87602 12.496 7.29602 12.496H12.84C13.176 12.496 13.512 12.748 13.512 13.168C13.512 13.588 13.176 13.84 12.84 13.84Z" fill="white"/>
</svg>
