<svg width="25" height="25" viewBox="0 0 25 25" fill="none" xmlns="http://www.w3.org/2000/svg">
<path d="M10.4121 1.53906C8.68153 1.53906 6.9898 2.05224 5.55087 3.0137C4.11194 3.97517 2.99043 5.34173 2.32817 6.94058C1.6659 8.53944 1.49262 10.2988 1.83024 11.9961C2.16786 13.6934 3.00122 15.2525 4.22493 16.4762C5.44864 17.7 7.00774 18.5333 8.70507 18.8709C10.4024 19.2086 12.1617 19.0353 13.7606 18.373C15.3594 17.7107 16.726 16.5892 17.6875 15.1503C18.6489 13.7114 19.1621 12.0196 19.1621 10.2891C19.1621 7.96842 18.2402 5.74282 16.5993 4.10188C14.9584 2.46093 12.7328 1.53906 10.4121 1.53906ZM10.4121 17.7891C8.92875 17.7891 7.47871 17.3492 6.24534 16.5251C5.01197 15.701 4.05067 14.5296 3.48302 13.1592C2.91536 11.7887 2.76683 10.2807 3.05622 8.82589C3.34561 7.37103 4.05992 6.03466 5.10881 4.98576C6.15771 3.93687 7.49408 3.22256 8.94894 2.93317C10.4038 2.64378 11.9118 2.79231 13.2822 3.35997C14.6527 3.92762 15.824 4.88892 16.6481 6.12229C17.4722 7.35565 17.9121 8.8057 17.9121 10.2891C17.9121 12.2782 17.1219 14.1858 15.7154 15.5924C14.3089 16.9989 12.4012 17.7891 10.4121 17.7891Z" fill="#6D728E"/>
<path d="M10.4121 15.9141C10.9299 15.9141 11.3496 15.4943 11.3496 14.9766C11.3496 14.4588 10.9299 14.0391 10.4121 14.0391C9.89434 14.0391 9.47461 14.4588 9.47461 14.9766C9.47461 15.4943 9.89434 15.9141 10.4121 15.9141Z" fill="#6D728E"/>
<path d="M11.0371 5.28907H10.0996C9.73004 5.28825 9.36395 5.36043 9.02235 5.50148C8.68075 5.64253 8.37037 5.84967 8.10904 6.11099C7.84771 6.37232 7.64058 6.6827 7.49953 7.0243C7.35848 7.3659 7.28629 7.732 7.28712 8.10157V8.41407H8.53712V8.10157C8.53712 7.68717 8.70174 7.28974 8.99476 6.99672C9.28779 6.70369 9.68522 6.53907 10.0996 6.53907H11.0371C11.4515 6.53907 11.8489 6.70369 12.142 6.99672C12.435 7.28974 12.5996 7.68717 12.5996 8.10157C12.5996 8.51597 12.435 8.9134 12.142 9.20642C11.8489 9.49945 11.4515 9.66407 11.0371 9.66407H9.78712V12.4766H11.0371V10.9141C11.783 10.9141 12.4984 10.6178 13.0259 10.0903C13.5533 9.56286 13.8496 8.84749 13.8496 8.10157C13.8496 7.35565 13.5533 6.64028 13.0259 6.11283C12.4984 5.58539 11.783 5.28907 11.0371 5.28907Z" fill="#6D728E"/>
</svg>
