<svg width="22" height="22" viewBox="0 0 22 22" fill="none" xmlns="http://www.w3.org/2000/svg">
<path d="M1.33197 6.8C0.995973 6.8 0.659973 6.548 0.659973 6.128V1.844C0.659973 1.088 1.24797 0.5 2.00397 0.5H6.11997C6.45597 0.5 6.79197 0.752 6.79197 1.172C6.79197 1.592 6.45597 1.76 6.11997 1.76H2.00397L1.91997 6.128C1.91997 6.464 1.66797 6.8 1.33197 6.8Z" fill="white"/>
<path d="M20.148 21.5H16.032C15.696 21.5 15.36 21.248 15.36 20.828C15.36 20.408 15.612 20.156 16.032 20.156H20.148V15.788C20.148 15.452 20.4 15.116 20.82 15.116C21.24 15.116 21.492 15.368 21.492 15.788V20.072C21.492 20.912 20.904 21.5 20.148 21.5Z" fill="white"/>
<path d="M6.11997 21.5H2.00397C1.24797 21.5 0.659973 20.912 0.659973 20.24V15.956C0.659973 15.62 0.911973 15.284 1.33197 15.284C1.75197 15.284 2.00397 15.536 2.00397 15.956V20.24H6.20397C6.53997 20.24 6.87597 20.492 6.87597 20.912C6.87597 21.332 6.45597 21.5 6.11997 21.5Z" fill="white"/>
<path d="M20.736 6.716C20.4 6.716 20.064 6.464 20.064 6.044V1.76H15.864C15.528 1.76 15.192 1.508 15.192 1.088C15.192 0.668001 15.444 0.416 15.864 0.416H19.98C20.736 0.416 21.324 1.004 21.324 1.676V5.96C21.408 6.38 21.072 6.716 20.736 6.716Z" fill="white"/>
<path d="M16.956 17.72H5.19599C4.69199 17.72 4.35599 17.468 4.01999 17.132C3.76799 16.712 3.68399 16.208 3.85199 15.788C4.52399 14.192 5.69999 12.848 7.29599 12.008C6.62399 11.168 6.28799 10.076 6.28799 9.068C6.28799 6.212 8.80799 3.86 11.748 4.196C14.1 4.448 15.864 6.296 16.116 8.564C16.284 9.824 15.948 11.084 15.108 12.092C16.62 12.932 17.796 14.192 18.468 15.788L18.552 15.872V16.04C18.552 16.964 17.88 17.72 16.956 17.72ZM11.244 5.288C9.22799 5.288 7.54799 6.968 7.54799 8.984C7.54799 9.908 7.96799 10.916 8.63999 11.588L8.80799 11.756V12.008C8.80799 12.176 8.80799 12.428 8.55599 12.68L8.38799 12.764C6.87599 13.436 5.69999 14.696 5.11199 16.124C5.11199 16.124 5.11199 16.208 5.19599 16.292C5.27999 16.376 5.27999 16.376 5.36399 16.376H17.124C17.292 16.376 17.376 16.208 17.376 16.04C16.704 14.612 15.612 13.52 14.184 12.848C13.932 12.764 13.764 12.596 13.68 12.428C13.596 12.176 13.596 11.756 13.848 11.588C14.688 10.748 15.108 9.656 14.94 8.564C14.772 6.884 13.428 5.53999 11.748 5.37199C11.496 5.28799 11.328 5.288 11.244 5.288Z" fill="white"/>
</svg>
