<svg width="24" height="24" viewBox="0 0 24 24" fill="none" xmlns="http://www.w3.org/2000/svg">
<g clip-path="url(#clip0_250_2918)">
<path d="M11.9999 0C5.37822 0 -9.15527e-05 5.37831 -9.15527e-05 12C-9.15527e-05 18.6217 5.37822 24 11.9999 24C18.6216 24 23.9999 18.6217 23.9999 12C23.9999 5.37831 18.6216 0 11.9999 0ZM11.9999 22.959C5.95653 22.959 1.04087 18.0434 1.04087 12C1.04087 5.95663 5.95653 1.04096 11.9999 1.04096C18.0433 1.04096 22.9589 5.95663 22.9589 12C22.9589 18.0434 18.0433 22.959 11.9999 22.959Z" fill="white" stroke="white" stroke-width="0.1"/>
<path d="M18.2457 9.39762H14.6023V5.75425C14.6023 5.46509 14.371 5.23376 14.0818 5.23376H9.91798C9.62882 5.23376 9.3975 5.46509 9.3975 5.75425V9.39762H5.75412C5.46497 9.39762 5.23364 9.62894 5.23364 9.9181V14.082C5.23364 14.3711 5.46497 14.6024 5.75412 14.6024H9.3975V18.2458C9.3975 18.535 9.62882 18.7663 9.91798 18.7663H14.0818C14.371 18.7663 14.6023 18.535 14.6023 18.2458V14.6024H18.2457C18.5348 14.6024 18.7662 14.3711 18.7662 14.082V9.9181C18.7373 9.62894 18.5059 9.39762 18.2457 9.39762ZM17.7541 13.5615H17.7252H14.0818C13.7927 13.5615 13.5614 13.7928 13.5614 14.082V17.7253H10.4385V14.082C10.4385 13.7928 10.2071 13.5615 9.91798 13.5615H6.27461V10.4386H9.91798C10.2071 10.4386 10.4385 10.2073 10.4385 9.9181V6.27473H13.5903V9.9181C13.5903 10.2073 13.8216 10.4386 14.1108 10.4386H17.7541V13.5615Z" fill="white" stroke="white" stroke-width="0.1"/>
</g>
<defs>
<clipPath id="clip0_250_2918">
<rect width="24" height="24" fill="white"/>
</clipPath>
</defs>
</svg>
