<svg width="25" height="25" viewBox="0 0 25 25" fill="none" xmlns="http://www.w3.org/2000/svg">
<path d="M12.1641 14.3937C13.4067 14.3937 14.4141 13.3863 14.4141 12.1437C14.4141 10.9011 13.4067 9.89371 12.1641 9.89371C10.9214 9.89371 9.91406 10.9011 9.91406 12.1437C9.91406 13.3863 10.9214 14.3937 12.1641 14.3937Z" stroke="#6D728E" stroke-width="1.5" stroke-linecap="round" stroke-linejoin="round"/>
<path d="M12.4362 21.8937H11.8925C11.545 21.8938 11.2084 21.7732 10.9399 21.5527C10.6715 21.3321 10.4879 21.0252 10.4206 20.6843L9.52061 16.1843C9.47767 15.9669 9.48345 15.7426 9.53753 15.5277C9.59162 15.3127 9.69267 15.1124 9.83342 14.9412C9.97416 14.77 10.1511 14.6321 10.3515 14.5374C10.5519 14.4427 10.7708 14.3937 10.9925 14.3937H13.3362C13.5579 14.3937 13.7768 14.4427 13.9772 14.5374C14.1776 14.6321 14.3546 14.77 14.4953 14.9412C14.6361 15.1124 14.7371 15.3127 14.7912 15.5277C14.8453 15.7426 14.8511 15.9669 14.8081 16.1843L13.9081 20.6843C13.8408 21.0252 13.6572 21.3321 13.3888 21.5527C13.1204 21.7732 12.7837 21.8938 12.4362 21.8937Z" stroke="#6D728E" stroke-width="1.5" stroke-linecap="round" stroke-linejoin="round"/>
<path d="M6.56719 15.0687C6.21601 14.1597 6.09154 13.1788 6.20453 12.2108C6.31752 11.2429 6.66457 10.3171 7.21568 9.51336C7.76678 8.70965 8.50536 8.05228 9.36754 7.59808C10.2297 7.14387 11.1896 6.90651 12.1641 6.90651C13.1386 6.90651 14.0984 7.14387 14.9606 7.59808C15.8228 8.05228 16.5613 8.70965 17.1124 9.51336C17.6636 10.3171 18.0106 11.2429 18.1236 12.2108C18.2366 13.1788 18.1121 14.1597 17.7609 15.0687" stroke="#6D728E" stroke-width="1.5" stroke-linecap="round" stroke-linejoin="round"/>
<path d="M7.32656 20.4781C5.68437 19.4313 4.426 17.8802 3.74035 16.0575C3.05469 14.2347 2.97875 12.2388 3.52391 10.3692C4.06908 8.49966 5.20595 6.85736 6.76385 5.68886C8.32175 4.52036 10.2166 3.8887 12.1641 3.8887C14.1115 3.8887 16.0064 4.52036 17.5643 5.68886C19.1222 6.85736 20.259 8.49966 20.8042 10.3692C21.3494 12.2388 21.2734 14.2347 20.5878 16.0575C19.9021 17.8802 18.6438 19.4313 17.0016 20.4781" stroke="#6D728E" stroke-width="1.5" stroke-linecap="round" stroke-linejoin="round"/>
</svg>
