<svg width="24" height="24" viewBox="0 0 24 24" fill="none" xmlns="http://www.w3.org/2000/svg">
<g clip-path="url(#clip0_250_3094)">
<path d="M11.9894 4.12354C7.64245 4.12849 4.11954 7.65113 4.11458 11.9983C4.11568 13.1022 4.35084 14.1933 4.80519 15.1996C4.93191 15.4832 5.26476 15.6105 5.54835 15.4836C5.83194 15.3569 5.95908 15.024 5.83222 14.7404C5.44281 13.8787 5.24068 12.944 5.23972 11.9983C5.23972 8.27045 8.26164 5.2484 11.9894 5.2484C15.7172 5.2484 18.7392 8.27045 18.7392 11.9983C18.7381 12.944 18.5361 13.8785 18.1465 14.7404C18.0197 15.024 18.1469 15.3567 18.4305 15.4836C18.7141 15.6105 19.047 15.4832 19.1738 15.1996C19.628 14.1933 19.8632 13.1022 19.8642 11.9983C19.8592 7.65113 16.3366 4.12849 11.9894 4.12354Z" fill="white"/>
<path d="M11.9894 0.748565C5.79052 0.734393 0.754035 5.74804 0.739725 11.9468C0.734634 14.2188 1.41904 16.439 2.70256 18.3135C2.8707 18.5745 3.21869 18.6499 3.47998 18.4816C3.74114 18.3135 3.81641 17.9653 3.64827 17.7042C3.64249 17.6955 3.63671 17.6868 3.63052 17.6785C2.48144 16.0071 1.86569 14.0266 1.86486 11.9981C1.86486 6.40645 6.39774 1.87343 11.9894 1.87343C17.5811 1.87343 22.114 6.40645 22.114 11.9981C22.1131 14.0266 21.4973 16.0071 20.348 17.6785C20.1655 17.9298 20.2212 18.2817 20.4728 18.464C20.7241 18.6465 21.0758 18.5907 21.2583 18.3392C21.2645 18.3308 21.2703 18.3223 21.2759 18.3135C24.7779 13.1987 23.4705 6.21326 18.3555 2.71126C16.4809 1.42775 14.2612 0.743336 11.9894 0.748565Z" fill="white"/>
<path d="M14.5329 15.7042C16.5831 14.2995 17.1061 11.4987 15.7014 9.44874C14.2965 7.39853 11.4959 6.87552 9.44581 8.28012C7.39574 9.68485 6.87259 12.4857 8.27746 14.5357C8.59133 14.9941 8.98761 15.3902 9.44581 15.7042C6.93506 16.555 5.24399 18.9093 5.23958 21.5602V22.6854C5.23958 22.9961 5.49139 23.2477 5.80208 23.2477H18.1767C18.4874 23.2477 18.7392 22.9959 18.7392 22.6854V21.5602C18.7349 18.9093 17.0438 16.555 14.5329 15.7042ZM8.61458 11.9981C8.61458 10.1342 10.1255 8.62329 11.9894 8.62329C13.8533 8.62329 15.3643 10.1342 15.3643 11.9981C15.3643 13.862 13.8533 15.373 11.9894 15.373C10.1264 15.3709 8.61664 13.8612 8.61458 11.9981ZM17.6143 22.1229H6.36458V21.5604C6.36775 18.7658 8.63247 16.5012 11.4269 16.4981H12.5519C15.3464 16.5012 17.6111 18.7658 17.6143 21.5604V22.1229Z" fill="white"/>
</g>
<defs>
<clipPath id="clip0_250_3094">
<rect width="24" height="24" fill="white"/>
</clipPath>
</defs>
</svg>
