<svg width="28" height="26" viewBox="0 0 28 26" fill="none" xmlns="http://www.w3.org/2000/svg">
<path d="M14.52 21.352C14.424 21.352 14.232 21.352 14.136 21.256H14.04C13.944 21.256 13.848 21.256 13.752 21.256H13.176C12.024 21.16 11.256 20.296 11.16 19.048V18.472C11.16 18.376 10.968 18.28 10.872 18.28C10.776 18.28 10.68 18.376 10.68 18.376C10.584 18.472 10.488 18.472 10.296 18.568C9.24002 19.048 7.99202 18.664 7.32002 17.704C7.22402 17.512 7.12802 17.32 7.03202 17.128C6.93602 16.936 6.84002 16.744 6.74402 16.552C6.26402 15.496 6.55202 14.248 7.51202 13.672C7.60802 13.576 7.60802 13.576 7.70402 13.48C7.70402 13.48 7.80002 13.48 7.80002 13.384L7.89602 13.288C7.99202 13.192 7.99202 13.096 7.99202 13.096C7.99202 13.096 7.99202 12.904 7.89602 12.904C7.89602 12.904 7.80002 12.904 7.80002 12.808C7.70402 12.808 7.60802 12.712 7.51202 12.712C6.36002 12.04 6.07202 10.792 6.64802 9.64003C6.74402 9.44803 6.84002 9.25603 6.93602 9.16003C7.03202 8.96803 7.12802 8.77603 7.22402 8.68003C7.89602 7.62403 9.14402 7.33604 10.296 7.81604C10.392 7.81604 10.488 7.91204 10.488 7.91204L10.584 8.00803H10.776C10.968 8.00803 11.16 7.91203 11.16 7.72003V7.04803C11.352 5.80003 12.312 4.93604 13.464 4.93604H14.808C16.056 5.12804 16.92 6.08803 16.92 7.24003V7.72003C17.016 7.91203 17.304 8.00804 17.496 7.91204H17.592C17.688 7.81604 17.88 7.72003 18.072 7.72003C19.128 7.24003 20.376 7.72003 20.856 8.68003C20.952 8.87203 21.048 9.06403 21.144 9.25603C21.24 9.44804 21.336 9.64004 21.432 9.83204C21.912 10.888 21.624 12.136 20.664 12.808C20.568 12.904 20.376 13 20.184 13.096C20.088 13.192 20.088 13.288 20.088 13.384C20.088 13.48 20.184 13.576 20.28 13.672L20.376 13.768C20.376 13.768 20.472 13.768 20.568 13.864C21.624 14.536 21.912 15.784 21.336 16.84C21.144 17.224 20.952 17.416 20.76 17.8C20.088 18.952 18.648 19.336 17.496 18.664L17.112 18.472C16.92 18.472 16.728 18.568 16.728 18.76V19.432C16.632 20.488 15.672 21.352 14.52 21.352ZM14.136 19.72C14.232 19.72 14.424 19.72 14.712 19.816C15 19.72 15.288 19.432 15.384 19.144V18.568C15.384 17.512 16.344 16.744 17.496 16.936C17.592 16.936 17.688 16.936 17.688 17.032L18.264 17.32C18.84 17.704 19.224 17.512 19.512 17.032C19.704 16.648 19.896 16.36 20.088 15.976C20.184 15.688 20.28 15.208 19.704 14.92L19.608 14.824C19.608 14.824 19.512 14.824 19.416 14.632C18.936 14.248 18.648 13.768 18.648 13.192C18.648 12.616 18.936 12.04 19.416 11.656C19.512 11.56 19.608 11.56 19.704 11.56L19.8 11.464C20.184 11.176 20.376 10.696 20.184 10.216C20.088 10.024 19.992 9.92804 19.896 9.73603C19.8 9.54403 19.704 9.35203 19.608 9.16003C19.416 8.87203 18.936 8.68004 18.552 8.87204C18.456 8.96804 18.36 8.96803 18.264 8.96803C18.264 9.06403 18.168 9.06403 18.072 9.06403C16.824 9.64003 15.672 8.87203 15.48 7.72003V7.62403V7.04803C15.48 6.66403 15.192 6.28003 14.808 6.18403H13.56C13.176 6.18403 12.792 6.47204 12.696 6.85604V7.43204C12.696 8.39204 11.736 9.25603 10.68 9.06403C10.296 9.06403 10.008 8.87204 9.81602 8.77604C9.81602 8.77604 9.72002 8.77603 9.72002 8.68003C9.24002 8.48803 8.76002 8.58403 8.56802 8.96803C8.47202 9.16003 8.37602 9.25603 8.28002 9.44803C8.18402 9.64003 8.08802 9.83203 7.99202 9.92803C7.89602 10.216 7.80002 10.696 8.37602 10.984C8.37602 10.984 8.37602 10.984 8.47202 10.984C8.56802 10.984 8.66402 11.08 8.85602 11.176C9.33602 11.464 9.62402 12.04 9.62402 12.616C9.62402 13.192 9.33602 13.768 8.85602 14.056C8.76002 14.152 8.76002 14.152 8.66402 14.248C8.66402 14.248 8.56802 14.248 8.56802 14.344L8.47202 14.44C8.08802 14.632 7.99202 15.112 8.18402 15.496C8.28002 15.688 8.37602 15.784 8.47202 15.976C8.56802 16.168 8.66402 16.36 8.76002 16.552C8.95202 16.84 9.43202 17.032 9.91202 16.84C9.91202 16.84 10.008 16.84 10.008 16.744C10.104 16.648 10.2 16.648 10.296 16.648C10.488 16.552 10.776 16.456 11.064 16.456C11.928 16.456 12.696 17.128 12.792 17.896V17.992V18.568C12.792 18.856 13.08 19.336 13.464 19.432H13.944C14.04 19.432 14.04 19.432 14.136 19.432C14.04 19.72 14.136 19.72 14.136 19.72ZM13.944 16.36C12.024 16.36 10.584 14.824 10.584 13C10.584 11.08 12.12 9.64003 13.944 9.64003C15.768 9.64003 17.4 11.176 17.4 13C17.4 14.92 15.864 16.36 13.944 16.36ZM13.944 11.08C12.888 11.08 12.024 11.944 12.024 13C12.024 14.056 12.888 14.92 13.944 14.92C15 14.92 15.96 14.056 15.96 13C15.96 11.944 15 11.08 13.944 11.08Z" fill="white"/>
<path d="M24.984 18.088C24.888 18.088 24.792 18.088 24.696 17.992C24.312 17.8 24.12 17.416 24.312 17.032C24.888 15.784 25.08 14.44 25.08 13C25.08 6.85602 20.088 1.96002 14.04 1.96002C12.312 1.96002 10.68 2.34402 8.95201 3.11202C8.56801 3.30402 8.18401 3.11202 7.99201 2.72802C7.80001 2.34402 7.99201 1.96002 8.37601 1.76802C10.2 0.90402 12.12 0.52002 14.04 0.52002C20.952 0.52002 26.52 6.18402 26.52 13C26.52 14.632 26.232 16.168 25.56 17.608C25.56 17.896 25.272 18.088 24.984 18.088Z" fill="white"/>
<path d="M13.848 25.4801C6.93601 25.4801 1.36801 19.8161 1.36801 13.0001C1.36801 11.3681 1.65601 9.83206 2.32801 8.39206C2.52001 8.00806 2.90401 7.81606 3.28801 8.00806C3.67201 8.20006 3.86401 8.58406 3.67201 8.96806C3.09601 10.2161 2.90401 11.5601 2.90401 13.0001C2.90401 19.1441 7.89601 24.0401 13.944 24.0401C15.672 24.0401 17.304 23.6561 19.032 22.8881C19.416 22.6961 19.8 22.8881 19.992 23.2721C20.184 23.6561 19.992 24.0401 19.608 24.2321C17.688 25.0961 15.768 25.4801 13.848 25.4801Z" fill="white"/>
<path d="M0.984006 8.68005C0.504006 8.39205 0.600006 8.00805 0.984006 7.72005L4.05601 6.08805C4.53601 5.80005 4.92001 6.08805 4.82401 6.56805V10.1201C4.82401 10.6001 4.44001 10.8881 3.96001 10.6001L0.984006 8.68005Z" fill="white"/>
<path d="M26.904 17.3201C27.384 17.6081 27.288 17.9921 26.904 18.2801L23.832 19.9121C23.352 20.2001 22.968 19.9121 23.064 19.4321L23.16 15.8801C23.16 15.4001 23.544 15.1121 24.024 15.4001L26.904 17.3201Z" fill="white"/>
</svg>
