<svg width="22" height="22" viewBox="0 0 22 22" fill="none" xmlns="http://www.w3.org/2000/svg">
<path d="M11.328 17.552C7.716 17.552 4.776 14.612 4.776 11C4.776 7.388 7.716 4.448 11.328 4.448C14.94 4.448 17.88 7.388 17.88 11C17.88 14.612 14.94 17.552 11.328 17.552ZM11.328 5.792C8.472 5.792 6.036 8.144 6.036 11.084C6.036 14.024 8.388 16.376 11.328 16.376C14.268 16.376 16.62 14.024 16.62 11.084C16.62 8.144 14.184 5.792 11.328 5.792Z" fill="white"/>
<path d="M11.328 21.668C5.952 21.668 1.416 17.636 0.828003 12.26C0.828003 11.924 0.996003 11.588 1.416 11.588C1.752 11.504 2.088 11.756 2.088 12.176C2.676 16.88 6.624 20.408 11.412 20.408C16.536 20.408 20.736 16.208 20.736 11C20.736 5.876 16.536 1.676 11.412 1.676C7.716 1.676 4.44 3.776 2.844 7.22C2.676 7.556 2.34 7.64 2.004 7.556C1.668 7.388 1.584 7.052 1.668 6.716C3.432 2.852 7.212 0.5 11.412 0.5C17.292 0.5 21.996 5.288 21.996 11.084C21.912 16.88 17.208 21.668 11.328 21.668Z" fill="white"/>
<path d="M3.936 6.63199C4.356 6.79999 4.44 7.13599 4.104 7.47199L1.92 9.57199C1.584 9.90799 1.248 9.73999 1.08 9.31999L0.408001 6.29599C0.324001 5.87599 0.576001 5.62399 0.996001 5.70799L3.936 6.63199Z" fill="white"/>
<path d="M11.328 11.672H8.052C7.716 11.672 7.38 11.42 7.38 11C7.38 10.58 7.632 10.328 8.052 10.328H10.74V8.31201C10.74 7.97601 10.992 7.64001 11.412 7.64001C11.832 7.64001 12.084 7.89201 12.084 8.31201V11C12 11.336 11.664 11.672 11.328 11.672Z" fill="white"/>
</svg>
