<svg width="22" height="22" viewBox="0 0 22 22" fill="none" xmlns="http://www.w3.org/2000/svg">
<path d="M15.696 21.332H6.45599C3.17999 21.332 0.575989 18.644 0.575989 15.452V6.212C0.575989 2.936 3.26399 0.332001 6.45599 0.332001H15.696C18.972 0.332001 21.576 3.02 21.576 6.212V15.452C21.66 18.728 18.972 21.332 15.696 21.332ZM6.45599 1.592C3.85199 1.592 1.83599 3.692 1.83599 6.212V15.452C1.83599 18.056 3.93599 20.072 6.45599 20.072H15.696C18.3 20.072 20.316 17.972 20.316 15.452V6.212C20.316 3.608 18.216 1.592 15.696 1.592H6.45599Z" fill="white"/>
<path d="M11.076 16.292C8.13601 16.292 5.70001 13.94 5.70001 10.916C5.70001 7.89201 8.05201 5.54001 11.076 5.54001C14.1 5.54001 16.452 7.89201 16.452 10.916C16.452 13.94 14.016 16.292 11.076 16.292ZM11.076 6.80001C8.80801 6.80001 6.96001 8.64801 6.96001 10.916C6.96001 13.184 8.80801 15.032 11.076 15.032C13.344 15.032 15.192 13.184 15.192 10.916C15.192 8.64801 13.344 6.80001 11.076 6.80001Z" fill="white"/>
<path d="M16.956 6.54802C17.6519 6.54802 18.216 5.98389 18.216 5.28802C18.216 4.59214 17.6519 4.02802 16.956 4.02802C16.2601 4.02802 15.696 4.59214 15.696 5.28802C15.696 5.98389 16.2601 6.54802 16.956 6.54802Z" fill="white"/>
</svg>
