<svg width="11" height="11" viewBox="0 0 11 11" fill="none" xmlns="http://www.w3.org/2000/svg">
<path fill-rule="evenodd" clip-rule="evenodd" d="M1.16732 7.66666V8.75C1.16732 9.94708 2.13744 10.9167 3.33398 10.9167H8.75065C9.94773 10.9167 10.9173 9.94708 10.9173 8.75C10.9173 6.94679 10.9173 4.05375 10.9173 2.24999C10.9173 1.05345 9.94773 0.0833282 8.75065 0.0833282C7.20203 0.0833282 4.88315 0.0833282 3.33398 0.0833282C2.13744 0.0833282 1.16732 1.05345 1.16732 2.24999V3.33333C1.16732 3.63233 1.40998 3.87499 1.70898 3.87499C2.00798 3.87499 2.25065 3.63233 2.25065 3.33333C2.25065 3.33333 2.25065 2.82579 2.25065 2.24999C2.25065 1.65199 2.73598 1.16666 3.33398 1.16666H8.75065C9.34919 1.16666 9.83398 1.65199 9.83398 2.24999V8.75C9.83398 9.34854 9.34919 9.83333 8.75065 9.83333C7.20203 9.83333 4.88315 9.83333 3.33398 9.83333C2.73598 9.83333 2.25065 9.34854 2.25065 8.75C2.25065 8.17475 2.25065 7.66666 2.25065 7.66666C2.25065 7.3682 2.00798 7.125 1.70898 7.125C1.40998 7.125 1.16732 7.3682 1.16732 7.66666ZM5.2764 4.95833L4.57603 4.25849C4.36478 4.0467 4.36478 3.70383 4.57603 3.49204C4.78782 3.28079 5.13069 3.28079 5.34194 3.49204L6.96694 5.11704C7.17874 5.32883 7.17874 5.6717 6.96694 5.88349L5.34194 7.50849C5.13069 7.71974 4.78782 7.71974 4.57603 7.50849C4.36478 7.2967 4.36478 6.95383 4.57603 6.74204L5.2764 6.04166H0.625651C0.326651 6.04166 0.0839844 5.799 0.0839844 5.5C0.0839844 5.20154 0.326651 4.95833 0.625651 4.95833H5.2764Z" fill="#C7CCE1"/>
</svg>
