<svg width="23" height="23" viewBox="0 0 23 23" fill="none" xmlns="http://www.w3.org/2000/svg">
<g clip-path="url(#clip0_250_2830)">
<path d="M12.4584 9.10417C12.5854 9.10417 12.7073 9.15465 12.7972 9.24451C12.887 9.33437 12.9375 9.45625 12.9375 9.58333C12.9375 9.71042 12.988 9.83229 13.0779 9.92216C13.1677 10.012 13.2896 10.0625 13.4167 10.0625C13.5438 10.0625 13.6656 10.012 13.7555 9.92216C13.8454 9.83229 13.8959 9.71042 13.8959 9.58333C13.8959 9.20208 13.7444 8.83645 13.4748 8.56687C13.2052 8.29728 12.8396 8.14583 12.4584 8.14583H11.9792V7.66667C11.9792 7.53958 11.9287 7.41771 11.8388 7.32784C11.749 7.23798 11.6271 7.1875 11.5 7.1875C11.3729 7.1875 11.2511 7.23798 11.1612 7.32784C11.0713 7.41771 11.0209 7.53958 11.0209 7.66667V8.14583H10.5417C10.1604 8.14583 9.7948 8.29728 9.52522 8.56687C9.25564 8.83645 9.10419 9.20208 9.10419 9.58333V10.5417C9.10419 10.9229 9.25564 11.2885 9.52522 11.5581C9.7948 11.8277 10.1604 11.9792 10.5417 11.9792H11.0209V13.8958H10.5417C10.4146 13.8958 10.2927 13.8454 10.2029 13.7555C10.113 13.6656 10.0625 13.5437 10.0625 13.4167C10.0625 13.2896 10.012 13.1677 9.92218 13.0778C9.83231 12.988 9.71044 12.9375 9.58335 12.9375C9.45627 12.9375 9.33439 12.988 9.24453 13.0778C9.15467 13.1677 9.10419 13.2896 9.10419 13.4167C9.10419 13.7979 9.25564 14.1635 9.52522 14.4331C9.7948 14.7027 10.1604 14.8542 10.5417 14.8542H11.0209V15.3333C11.0209 15.4604 11.0713 15.5823 11.1612 15.6722C11.2511 15.762 11.3729 15.8125 11.5 15.8125C11.6271 15.8125 11.749 15.762 11.8388 15.6722C11.9287 15.5823 11.9792 15.4604 11.9792 15.3333V14.8542H12.4584C12.8396 14.8542 13.2052 14.7027 13.4748 14.4331C13.7444 14.1635 13.8959 13.7979 13.8959 13.4167V12.4583C13.8959 12.0771 13.7444 11.7115 13.4748 11.4419C13.2052 11.1723 12.8396 11.0208 12.4584 11.0208H11.9792V9.10417H12.4584ZM12.4584 11.9792C12.5854 11.9792 12.7073 12.0296 12.7972 12.1195C12.887 12.2094 12.9375 12.3313 12.9375 12.4583V13.4167C12.9375 13.5437 12.887 13.6656 12.7972 13.7555C12.7073 13.8454 12.5854 13.8958 12.4584 13.8958H11.9792V11.9792H12.4584ZM11.0209 11.0208H10.5417C10.4146 11.0208 10.2927 10.9704 10.2029 10.8805C10.113 10.7906 10.0625 10.6687 10.0625 10.5417V9.58333C10.0625 9.45625 10.113 9.33437 10.2029 9.24451C10.2927 9.15465 10.4146 9.10417 10.5417 9.10417H11.0209V11.0208Z" fill="white" stroke="white" stroke-width="0.1"/>
<path d="M11.5 -0.000221654C8.7951 -0.005574 6.17524 0.944729 4.10279 2.68298C2.03035 4.42122 0.638532 6.83567 0.172979 9.50022C0.162093 9.56223 0.163536 9.62579 0.177226 9.68724C0.190916 9.7487 0.216584 9.80686 0.252764 9.85839C0.288943 9.90992 0.334923 9.95382 0.388077 9.98757C0.441231 10.0213 0.500515 10.0443 0.562542 10.0551C0.590077 10.0599 0.617971 10.0623 0.645917 10.0623C0.758548 10.0622 0.867544 10.0224 0.953767 9.94993C1.03999 9.87747 1.09793 9.77694 1.11742 9.66601C1.40234 8.05589 2.05792 6.53412 3.03231 5.22102C4.00671 3.90792 5.2732 2.8395 6.73167 2.10021C8.19014 1.36093 9.80059 0.971057 11.4357 0.961424C13.0708 0.95179 14.6857 1.32266 16.1528 2.04471C17.6199 2.76675 18.8989 3.82018 19.8887 5.12171C20.8785 6.42324 21.552 7.93717 21.8558 9.54383C22.1597 11.1505 22.0857 12.8058 21.6396 14.3789C21.1935 15.952 20.3875 17.3998 19.2855 18.6077L16.5705 15.8928C17.3861 14.9516 17.9236 13.802 18.1229 12.5727C18.3221 11.3434 18.1752 10.0829 17.6987 8.93232C17.2221 7.78175 16.4346 6.78656 15.4245 6.05818C14.4143 5.3298 13.2214 4.89699 11.9792 4.80822V2.39561C11.9792 2.26853 11.9287 2.14665 11.8388 2.05679C11.749 1.96693 11.6271 1.91645 11.5 1.91645C11.3729 1.91645 11.251 1.96693 11.1612 2.05679C11.0713 2.14665 11.0208 2.26853 11.0208 2.39561V4.80822C9.41212 4.92573 7.89934 5.61798 6.75877 6.75855C5.61821 7.89912 4.92595 9.41189 4.80844 11.0206H0.479167C0.352084 11.0206 0.230206 11.0711 0.140345 11.161C0.0504835 11.2508 0 11.3727 0 11.4998C0 13.7743 0.674463 15.9977 1.9381 17.8888C3.20174 19.78 4.99779 21.254 7.09914 22.1244C9.20049 22.9948 11.5128 23.2225 13.7435 22.7788C15.9743 22.3351 18.0234 21.2398 19.6317 19.6315C21.24 18.0232 22.3353 15.9741 22.779 13.7433C23.2228 11.5125 22.995 9.20027 22.1246 7.09892C21.2542 4.99757 19.7802 3.20151 17.8891 1.93788C15.9979 0.674241 13.7745 -0.000221654 11.5 -0.000221654ZM11.5 22.0414C8.78809 22.0381 6.18149 20.9912 4.22074 19.1177C2.26 17.2442 1.09555 14.6879 0.968875 11.9789H4.80844C4.88509 13.0403 5.21295 14.0682 5.76499 14.9779C6.31703 15.8876 7.07743 16.653 7.98347 17.211C8.88952 17.769 9.91524 18.1037 10.976 18.1873C12.0368 18.2709 13.1023 18.1012 14.0846 17.692C14.1427 17.6678 14.1954 17.6323 14.2398 17.5876C14.2842 17.5429 14.3193 17.49 14.3432 17.4317C14.3671 17.3735 14.3793 17.3111 14.3791 17.2481C14.3788 17.1852 14.3662 17.1229 14.3419 17.0648C14.3176 17.0067 14.2822 16.954 14.2375 16.9096C14.1928 16.8653 14.1399 16.8302 14.0816 16.8063C14.0234 16.7824 13.961 16.7702 13.898 16.7704C13.8351 16.7706 13.7728 16.7832 13.7147 16.8075C12.3957 17.3592 10.9186 17.4002 9.57103 16.9227C8.22343 16.4451 7.10177 15.4832 6.42443 14.2241C5.74709 12.965 5.56254 11.4989 5.90673 10.1113C6.25092 8.72362 7.0992 7.5137 8.28643 6.7171C9.47365 5.9205 10.9148 5.59422 12.3294 5.80179C13.744 6.00937 15.0306 6.73593 15.939 7.84004C16.8473 8.94414 17.3122 10.3468 17.2432 11.7748C17.1742 13.2028 16.5762 14.5541 15.5657 15.5655C15.4759 15.6554 15.4254 15.7772 15.4254 15.9043C15.4254 16.0313 15.4759 16.1532 15.5657 16.243L18.608 19.2853C16.6694 21.0649 14.1316 22.049 11.5 22.0414Z" fill="white" stroke="white" stroke-width="0.1"/>
</g>
<defs>
<clipPath id="clip0_250_2830">
<rect width="23" height="23" fill="white"/>
</clipPath>
</defs>
</svg>
