<svg width="15" height="24" viewBox="0 0 15 24" fill="none" xmlns="http://www.w3.org/2000/svg">
<path d="M11.444 23.928H2.70799C1.19599 23.928 0.019989 22.752 0.019989 21.24V2.76002C0.019989 1.24802 1.19599 0.0720215 2.70799 0.0720215H11.444C12.956 0.0720215 14.132 1.24802 14.132 2.76002V21.24C14.132 22.752 12.956 23.928 11.444 23.928ZM2.70799 0.912021C1.69999 0.912021 0.859989 1.75202 0.859989 2.76002V21.24C0.859989 22.248 1.69999 23.088 2.70799 23.088H11.444C12.452 23.088 13.292 22.248 13.292 21.24V2.76002C13.292 1.75202 12.452 0.912021 11.444 0.912021H2.70799Z" fill="white"/>
<path d="M13.712 19.98H0.439989C0.187989 19.98 0.019989 19.812 0.019989 19.56C0.019989 19.308 0.187989 19.14 0.439989 19.14H13.712C13.964 19.14 14.132 19.308 14.132 19.56C14.132 19.812 13.964 19.98 13.712 19.98Z" fill="white"/>
<path d="M13.712 4.944H0.439989C0.187989 4.944 0.019989 4.776 0.019989 4.524C0.019989 4.272 0.187989 4.104 0.439989 4.104H13.712C13.964 4.104 14.132 4.272 14.132 4.524C14.132 4.776 13.964 4.944 13.712 4.944Z" fill="white"/>
<path d="M8.504 3.012H5.648C5.396 3.012 5.228 2.844 5.228 2.592C5.228 2.34 5.396 2.172 5.648 2.172H8.504C8.756 2.172 8.924 2.34 8.924 2.592C8.924 2.844 8.756 3.012 8.504 3.012Z" fill="white"/>
<path d="M7.07598 22.332C7.4935 22.332 7.83198 21.9935 7.83198 21.576C7.83198 21.1585 7.4935 20.82 7.07598 20.82C6.65845 20.82 6.31998 21.1585 6.31998 21.576C6.31998 21.9935 6.65845 22.332 7.07598 22.332Z" fill="white"/>
<path d="M6.90801 16.116C6.82401 16.116 6.65601 16.032 6.57201 16.032L3.12801 12.588C2.54001 12 2.37201 11.412 2.37201 10.908C2.37201 10.74 2.37201 10.572 2.54001 10.488C2.54001 10.152 2.62401 9.90003 2.70801 9.56403C3.12801 8.64003 4.05201 7.96803 4.97601 7.88403H5.64801C6.15201 7.96803 6.57201 8.13603 6.90801 8.38803C7.41201 8.05203 7.91601 7.88403 8.25201 7.88403H9.00801C9.68001 7.96803 10.1 8.22003 10.52 8.55603C11.192 9.22803 11.528 10.068 11.36 10.908C11.36 11.16 11.276 11.496 11.108 11.832C11.024 12.168 10.772 12.336 10.52 12.588L7.16001 15.948C7.16001 16.032 6.99201 16.116 6.90801 16.116ZM3.29601 10.992C3.38001 11.412 3.54801 11.664 3.80001 11.916L6.90801 15.024L9.93201 12C10.184 11.748 10.268 11.664 10.352 11.496C10.352 11.496 10.352 11.412 10.436 11.412C10.52 11.244 10.604 11.076 10.604 10.908C10.688 10.236 10.436 9.64803 9.93201 9.22803C9.68001 8.97603 9.42801 8.80803 9.00801 8.72403H8.42001C7.91601 8.80803 7.58001 8.97603 7.32801 9.31203C7.16001 9.48003 6.90801 9.48003 6.74001 9.31203C6.40401 8.97603 6.06801 8.80803 5.73201 8.72403H5.14401C4.55601 8.80803 3.88401 9.22803 3.63201 9.90003C3.54801 10.068 3.46401 10.32 3.46401 10.488V10.656C3.38001 10.824 3.29601 10.908 3.29601 10.992Z" fill="white"/>
<path d="M8.504 12.672C8.42 12.672 8.252 12.672 8.168 12.588L6.068 10.488L4.976 11.58C4.892 11.664 4.808 11.664 4.64 11.664H1.532C1.28 11.664 1.112 11.496 1.112 11.244C1.112 10.992 1.28 10.824 1.532 10.824H4.472L5.816 9.48C5.984 9.312 6.236 9.312 6.404 9.48L8.588 11.664L9.344 10.908C9.428 10.824 9.512 10.824 9.596 10.824H12.62C12.872 10.824 13.04 10.992 13.04 11.244C13.04 11.496 12.872 11.664 12.62 11.664H9.764L8.756 12.588C8.672 12.672 8.588 12.672 8.504 12.672Z" fill="white"/>
</svg>
