<svg width="22" height="26" viewBox="0 0 22 26" fill="none" xmlns="http://www.w3.org/2000/svg">
<path d="M16.284 22.9121C16.032 22.9121 15.864 22.8281 15.78 22.5761C15.612 22.2401 15.696 21.9041 15.948 21.7361C17.376 20.8121 18.552 19.6361 19.392 18.2081C20.736 15.8561 21.072 13.1681 20.316 10.6481C19.476 7.87613 17.544 5.60813 14.856 4.26413C13.512 3.59213 12.168 3.25613 10.824 3.08812C10.488 3.08812 10.236 2.75212 10.236 2.41612C10.236 2.08012 10.572 1.82812 10.908 1.82812C12.42 1.99613 13.932 2.41613 15.36 3.17213C18.384 4.68413 20.568 7.28813 21.492 10.3961C22.332 13.2521 21.996 16.3601 20.4 18.9641C19.476 20.6441 18.132 21.9881 16.452 22.9961C16.536 22.8281 16.368 22.9121 16.284 22.9121Z" fill="white"/>
<path d="M11.916 0.736119C11.916 0.316119 11.496 0.064119 11.16 0.316119L8.052 2.24812C7.632 2.50012 7.716 2.83612 8.136 3.00412L11.496 4.51612C11.916 4.68412 12.252 4.51612 12.168 4.01212L11.916 0.736119Z" fill="white"/>
<path d="M11.16 24.3401C11.16 24.3401 11.076 24.2561 11.16 24.3401C9.564 24.1721 8.052 23.7521 6.624 22.9961C3.516 21.4001 1.332 18.8801 0.492 15.7721C-0.348 12.9161 0.0719999 9.80812 1.668 7.20412C2.592 5.52412 3.936 4.18012 5.616 3.17212C5.952 3.00412 6.288 3.08812 6.456 3.34012C6.624 3.67612 6.54 4.01212 6.288 4.18012C4.86 5.10412 3.684 6.28012 2.844 7.70812C1.416 10.0601 1.08 12.7481 1.836 15.2681C2.592 18.0401 4.608 20.3081 7.296 21.7361C8.64 22.4081 9.984 22.7441 11.328 22.9121C11.664 22.9121 11.916 23.2481 11.916 23.5841C11.748 24.0881 11.496 24.3401 11.16 24.3401Z" fill="white"/>
<path d="M10.236 25.2642C10.236 25.6842 10.656 25.9362 10.992 25.6842L14.1 23.7522C14.52 23.5002 14.436 23.1642 14.016 22.9962L10.656 21.4002C10.236 21.2322 9.9 21.4002 9.984 21.9042L10.236 25.2642Z" fill="white"/>
<path d="M6.624 19.1322C6.54 19.1322 6.456 19.1322 6.372 19.0482C6.204 18.9642 6.036 18.7122 6.036 18.4602V16.6962C5.028 16.6122 4.188 15.6882 4.188 14.6802V8.8002C4.188 7.7082 5.112 6.7002 6.288 6.7002H16.032C17.124 6.7002 18.132 7.6242 18.132 8.8002V14.7642C18.132 15.8562 17.208 16.8642 16.032 16.8642H10.236H10.152L6.96 19.0482C6.876 19.1322 6.792 19.1322 6.624 19.1322ZM6.204 7.9602C5.784 7.9602 5.364 8.3802 5.364 8.8002V14.7642C5.364 15.1842 5.784 15.6042 6.204 15.6042C6.792 15.6042 7.296 16.0242 7.296 16.6962V17.3682L9.48 15.7722C9.564 15.6882 9.648 15.6882 9.732 15.6882C9.816 15.6042 9.984 15.6042 10.152 15.6042H16.032C16.452 15.6042 16.872 15.1842 16.872 14.7642V8.8002C16.872 8.3802 16.452 7.9602 16.032 7.9602H6.204Z" fill="white"/>
<path d="M14.856 11.2361H7.296C6.96 11.2361 6.624 10.9841 6.624 10.5641C6.624 10.1441 6.876 9.89209 7.296 9.89209H14.856C15.192 9.89209 15.528 10.1441 15.528 10.5641C15.528 10.9841 15.192 11.2361 14.856 11.2361Z" fill="white"/>
<path d="M12.84 13.8401H7.296C6.96 13.8401 6.624 13.5881 6.624 13.1681C6.624 12.7481 6.876 12.4961 7.296 12.4961H12.84C13.176 12.4961 13.512 12.7481 13.512 13.1681C13.512 13.5881 13.176 13.8401 12.84 13.8401Z" fill="white"/>
</svg>
