<svg width="24" height="22" viewBox="0 0 24 22" fill="none" xmlns="http://www.w3.org/2000/svg">
<path d="M12.58 18.308C12.496 18.308 12.328 18.308 12.244 18.224H12.16C12.076 18.224 11.992 18.224 11.908 18.224H11.404C10.396 18.14 9.724 17.384 9.64 16.292V15.788C9.64 15.704 9.472 15.62 9.388 15.62C9.304 15.62 9.22 15.704 9.22 15.704C9.136 15.788 9.052 15.788 8.884 15.872C7.96 16.292 6.868 15.956 6.28 15.116C6.196 14.948 6.112 14.78 6.028 14.612C5.944 14.444 5.86 14.276 5.776 14.108C5.356 13.184 5.608 12.092 6.448 11.588C6.532 11.504 6.532 11.504 6.616 11.42C6.616 11.42 6.7 11.42 6.7 11.336L6.784 11.252C6.868 11.168 6.868 11.084 6.868 11.084C6.868 11.084 6.868 10.916 6.784 10.916C6.784 10.916 6.7 10.916 6.7 10.832C6.616 10.832 6.532 10.748 6.448 10.748C5.44 10.16 5.188 9.06803 5.692 8.06003C5.776 7.89203 5.86 7.72403 5.944 7.64003C6.028 7.47203 6.112 7.30403 6.196 7.22003C6.784 6.29603 7.876 6.04403 8.884 6.46403C8.968 6.46403 9.052 6.54803 9.052 6.54803L9.136 6.63203H9.304C9.472 6.63203 9.64 6.54803 9.64 6.38003V5.79203C9.808 4.70003 10.648 3.94403 11.656 3.94403H12.832C13.924 4.11203 14.68 4.95203 14.68 5.96003V6.38003C14.764 6.54803 15.016 6.63203 15.184 6.54803H15.268C15.352 6.46403 15.52 6.38003 15.688 6.38003C16.612 5.96003 17.704 6.38003 18.124 7.22003C18.208 7.38803 18.292 7.55603 18.376 7.72403C18.46 7.89203 18.544 8.06003 18.628 8.22803C19.048 9.15203 18.796 10.244 17.956 10.832C17.872 10.916 17.704 11 17.536 11.084C17.452 11.168 17.452 11.252 17.452 11.336C17.452 11.42 17.536 11.504 17.62 11.588L17.704 11.672C17.704 11.672 17.788 11.672 17.872 11.756C18.796 12.344 19.048 13.436 18.544 14.36C18.376 14.696 18.208 14.864 18.04 15.2C17.452 16.208 16.192 16.544 15.184 15.956L14.848 15.788C14.68 15.788 14.512 15.872 14.512 16.04V16.628C14.428 17.552 13.588 18.308 12.58 18.308ZM12.244 16.88C12.328 16.88 12.496 16.88 12.748 16.964C13 16.88 13.252 16.628 13.336 16.376V15.872C13.336 14.948 14.176 14.276 15.184 14.444C15.268 14.444 15.352 14.444 15.352 14.528L15.856 14.78C16.36 15.116 16.696 14.948 16.948 14.528C17.116 14.192 17.284 13.94 17.452 13.604C17.536 13.352 17.62 12.932 17.116 12.68L17.032 12.596C17.032 12.596 16.948 12.596 16.864 12.428C16.444 12.092 16.192 11.672 16.192 11.168C16.192 10.664 16.444 10.16 16.864 9.82403C16.948 9.74003 17.032 9.74003 17.116 9.74003L17.2 9.65603C17.536 9.40403 17.704 8.98403 17.536 8.56403C17.452 8.39603 17.368 8.31203 17.284 8.14403C17.2 7.97603 17.116 7.80803 17.032 7.64003C16.864 7.38803 16.444 7.22003 16.108 7.38803C16.024 7.47203 15.94 7.47203 15.856 7.47203C15.856 7.55603 15.772 7.55603 15.688 7.55603C14.596 8.06003 13.588 7.38803 13.42 6.38003V6.29603V5.79203C13.42 5.45603 13.168 5.12003 12.832 5.03603H11.74C11.404 5.03603 11.068 5.28803 10.984 5.62403V6.12803C10.984 6.96803 10.144 7.72403 9.22 7.55603C8.884 7.55603 8.632 7.38803 8.464 7.30403C8.464 7.30403 8.38 7.30403 8.38 7.22003C7.96 7.05203 7.54 7.13603 7.372 7.47203C7.288 7.64003 7.204 7.72403 7.12 7.89203C7.036 8.06003 6.952 8.22803 6.868 8.31203C6.784 8.56403 6.7 8.98403 7.204 9.23603C7.204 9.23603 7.204 9.23603 7.288 9.23603C7.372 9.23603 7.456 9.32003 7.624 9.40403C8.044 9.65603 8.296 10.16 8.296 10.664C8.296 11.168 8.044 11.672 7.624 11.924C7.54 12.008 7.54 12.008 7.456 12.092C7.456 12.092 7.372 12.092 7.372 12.176L7.288 12.26C6.952 12.428 6.868 12.848 7.036 13.184C7.12 13.352 7.204 13.436 7.288 13.604C7.372 13.772 7.456 13.94 7.54 14.108C7.708 14.36 8.128 14.528 8.548 14.36C8.548 14.36 8.632 14.36 8.632 14.276C8.716 14.192 8.8 14.192 8.884 14.192C9.052 14.108 9.304 14.024 9.556 14.024C10.312 14.024 10.984 14.612 11.068 15.284V15.368V15.872C11.068 16.124 11.32 16.544 11.656 16.628H12.076C12.16 16.628 12.16 16.628 12.244 16.628C12.16 16.88 12.244 16.88 12.244 16.88ZM12.076 13.94C10.396 13.94 9.136 12.596 9.136 11C9.136 9.32003 10.48 8.06003 12.076 8.06003C13.672 8.06003 15.1 9.40403 15.1 11C15.1 12.68 13.756 13.94 12.076 13.94ZM12.076 9.32003C11.152 9.32003 10.396 10.076 10.396 11C10.396 11.924 11.152 12.68 12.076 12.68C13 12.68 13.84 11.924 13.84 11C13.84 10.076 13 9.32003 12.076 9.32003Z" fill="white"/>
<path d="M21.736 15.452C21.652 15.452 21.568 15.452 21.484 15.368C21.148 15.2 20.98 14.864 21.148 14.528C21.652 13.436 21.82 12.26 21.82 11C21.82 5.62402 17.452 1.34002 12.16 1.34002C10.648 1.34002 9.22003 1.67602 7.70803 2.34802C7.37203 2.51602 7.03603 2.34802 6.86803 2.01202C6.70003 1.67602 6.86803 1.34002 7.20403 1.17202C8.80003 0.416017 10.48 0.0800171 12.16 0.0800171C18.208 0.0800171 23.08 5.03602 23.08 11C23.08 12.428 22.828 13.772 22.24 15.032C22.24 15.284 21.988 15.452 21.736 15.452Z" fill="white"/>
<path d="M11.992 21.92C5.94402 21.92 1.07202 16.964 1.07202 11C1.07202 9.57201 1.32402 8.22801 1.91202 6.96801C2.08002 6.63201 2.41602 6.46401 2.75202 6.63201C3.08802 6.80001 3.25602 7.13601 3.08802 7.47201C2.58402 8.56401 2.41602 9.74001 2.41602 11C2.41602 16.376 6.78402 20.66 12.076 20.66C13.588 20.66 15.016 20.324 16.528 19.652C16.864 19.484 17.2 19.652 17.368 19.988C17.536 20.324 17.368 20.66 17.032 20.828C15.352 21.584 13.672 21.92 11.992 21.92Z" fill="white"/>
<path d="M0.73603 7.22004C0.31603 6.96804 0.40003 6.63204 0.73603 6.38004L3.42403 4.95204C3.84403 4.70004 4.18003 4.95204 4.09603 5.37204V8.48004C4.09603 8.90004 3.76003 9.15204 3.34003 8.90004L0.73603 7.22004Z" fill="white"/>
<path d="M23.416 14.78C23.836 15.032 23.752 15.368 23.416 15.62L20.728 17.048C20.308 17.3 19.972 17.048 20.056 16.628L20.14 13.52C20.14 13.1 20.476 12.848 20.896 13.1L23.416 14.78Z" fill="white"/>
</svg>
