<svg width="24" height="24" viewBox="0 0 24 24" fill="none" xmlns="http://www.w3.org/2000/svg">
<g clip-path="url(#clip0_250_2978)">
<path d="M17.7588 5.71195C17.3442 5.43604 16.8733 5.38448 16.4666 5.57029C15.8397 5.85689 15.1662 6.24581 14.4531 6.65756C13.0558 7.46446 11.474 8.37782 9.86625 8.72184L7.53923 8.72179C5.97736 8.72179 4.70667 9.99243 4.70667 11.5544C4.70667 13.1088 5.96531 14.3743 7.51688 14.3864C7.61545 16.4694 8.50125 18.313 9.90033 19.2867C10.0817 19.4129 10.2877 19.4773 10.497 19.4773C10.6298 19.4773 10.764 19.4514 10.8941 19.3989C11.2292 19.2639 11.4618 18.9832 11.5323 18.6288L11.7214 17.6784C11.7943 17.3121 11.6723 16.9437 11.395 16.6931C10.9055 16.2508 10.5842 15.4511 10.5031 14.5202C12.3707 14.9878 14.0033 16.0273 15.5876 17.0364C15.8538 17.2059 16.129 17.3812 16.398 17.5489C16.5664 17.6539 16.7576 17.7059 16.958 17.7059C17.2181 17.7059 17.4938 17.6182 17.7552 17.4453C18.1369 17.193 18.3558 16.7923 18.3558 16.3461V6.80887C18.3558 6.36417 18.1382 5.96428 17.7588 5.71195ZM5.83167 11.5543C5.83167 10.6128 6.59766 9.84675 7.53919 9.84675L9.36211 9.84679L9.36202 13.2619L7.53919 13.2619C6.59766 13.2619 5.83167 12.4959 5.83167 11.5543ZM10.61 17.4994L10.4513 18.2971C9.39989 17.511 8.73244 16.0542 8.64272 14.3869H9.36633C9.43181 15.6856 9.87942 16.8195 10.61 17.4994ZM17.2308 16.346C17.2308 16.3965 17.215 16.4451 17.1348 16.5069C17.0046 16.6071 16.8162 16.4834 16.8162 16.4834C16.8162 16.4834 16.4064 16.224 16.192 16.0875C14.5311 15.0295 12.6631 13.84 10.4871 13.3611L10.4872 9.72984C12.1228 9.30196 13.6527 8.41893 15.0157 7.63181C15.6286 7.2779 16.2112 6.94148 16.7393 6.68536C16.8052 6.65343 16.9343 6.59339 16.9343 6.59339C16.9343 6.59339 17.0239 6.5534 17.1356 6.64856C17.2121 6.71371 17.2308 6.75853 17.2308 6.80887V16.346ZM12 0.000183105C5.38317 0.000183105 0 5.38335 0 12.0001C0 18.6169 5.38317 24.0001 12 24.0001C18.6168 24.0001 24 18.6169 24 12.0001C24 5.38335 18.6168 0.000183105 12 0.000183105ZM12 22.8751C6.00352 22.8751 1.125 17.9966 1.125 12.0001C1.125 6.00365 6.00352 1.12518 12 1.12518C17.9965 1.12518 22.875 6.00365 22.875 12.0001C22.875 17.9966 17.9965 22.8751 12 22.8751Z" fill="white"/>
</g>
<defs>
<clipPath id="clip0_250_2978">
<rect width="24" height="24" fill="white"/>
</clipPath>
</defs>
</svg>
