<svg width="15" height="15" viewBox="0 0 15 15" fill="none" xmlns="http://www.w3.org/2000/svg">
<g clip-path="url(#clip0_250_3181)">
<path d="M4.79095 6.30891C4.92651 7.19005 5.6074 8.3115 6.72577 8.70585C7.18482 8.86606 7.68701 8.86914 8.14607 8.70277C9.24595 8.30534 9.9484 7.18697 10.087 6.30891C10.2349 6.29658 10.429 6.09016 10.6385 5.34766C10.925 4.33404 10.62 4.18308 10.3612 4.20772C10.4105 4.06908 10.4475 3.92736 10.4722 3.7918C10.9096 1.16378 9.61566 1.07444 9.61566 1.07444C9.61566 1.07444 9.4 0.661595 8.83619 0.350423C8.45724 0.125516 7.9304 -0.0470148 7.2372 0.0115225C7.01229 0.0207652 6.79971 0.0669789 6.59945 0.131678C6.34373 0.217944 6.10959 0.344261 5.897 0.492145C5.63821 0.655433 5.39173 0.858773 5.17607 1.08984C4.83409 1.44107 4.52908 1.89396 4.3966 2.45777C4.28569 2.87985 4.31033 3.32042 4.40276 3.79488C4.42741 3.93352 4.46438 4.07216 4.51367 4.2108C4.25488 4.18616 3.94987 4.33712 4.23639 5.35074C4.44897 6.09016 4.64307 6.29658 4.79095 6.30891Z" fill="#6D728E"/>
<path d="M12.521 9.75644C10.9466 9.35593 9.66803 8.4563 9.66803 8.4563L8.66981 11.6142L8.48188 12.2088L8.4788 12.1996L8.31551 12.7049L7.78867 11.2106C9.08265 9.40522 7.52679 9.4237 7.44053 9.42679C7.35426 9.4237 5.7984 9.40522 7.09239 11.2106L6.56555 12.7049L6.40226 12.1996L6.39918 12.2088L6.21125 11.6142L5.20995 8.4563C5.20995 8.4563 3.93137 9.35593 2.35703 9.75644C1.1832 10.0553 1.12774 11.4109 1.17396 12.0795C1.17396 12.0795 1.24174 12.9883 1.30952 13.3888C1.30952 13.3888 3.60171 14.8769 7.44053 14.88C11.2793 14.88 13.5715 13.3888 13.5715 13.3888C13.6393 12.9883 13.7071 12.0795 13.7071 12.0795C13.7502 11.4109 13.6948 10.0553 12.521 9.75644Z" fill="#6D728E"/>
</g>
<defs>
<clipPath id="clip0_250_3181">
<rect width="14.88" height="14.88" fill="white"/>
</clipPath>
</defs>
</svg>
