<svg width="15" height="18" viewBox="0 0 15 18" fill="none" xmlns="http://www.w3.org/2000/svg">
<path d="M7.26773 9.31296C9.58716 9.31296 11.4832 7.41694 11.4832 5.0975C11.4832 2.77807 9.58716 0.88205 7.26773 0.88205C4.94829 0.88205 3.05231 2.77807 3.05231 5.0975C3.05231 7.41694 4.94833 9.31296 7.26773 9.31296Z" fill="#6D728E"/>
<path d="M14.5021 12.6816C14.3916 12.4055 14.2443 12.1478 14.0787 11.9085C13.2319 10.6567 11.925 9.82837 10.4523 9.62588C10.2682 9.60749 10.0657 9.64427 9.91847 9.75473C9.14532 10.3254 8.22494 10.6199 7.2677 10.6199C6.31045 10.6199 5.39007 10.3254 4.61692 9.75473C4.46964 9.64427 4.26715 9.58906 4.08309 9.62588C2.61044 9.82837 1.28507 10.6567 0.456715 11.9085C0.291044 12.1478 0.143765 12.4239 0.0333412 12.6816C-0.0218707 12.7921 -0.00347851 12.9209 0.0517335 13.0314C0.199012 13.2891 0.383076 13.5468 0.548747 13.7677C0.80645 14.1175 1.08258 14.4304 1.39553 14.7249C1.65323 14.9826 1.94776 15.222 2.24231 15.4613C3.69653 16.5474 5.44531 17.118 7.2493 17.118C9.05329 17.118 10.8021 16.5473 12.2563 15.4613C12.5508 15.2404 12.8453 14.9826 13.1031 14.7249C13.3976 14.4304 13.6921 14.1175 13.9499 13.7677C14.1339 13.5284 14.2996 13.2891 14.4469 13.0314C14.5389 12.9209 14.5573 12.7921 14.5021 12.6816Z" fill="#6D728E"/>
</svg>
