<svg width="20" height="24" viewBox="0 0 20 24" fill="none" xmlns="http://www.w3.org/2000/svg">
<path d="M10.42 21.148H3.53198C2.10398 21.148 0.927979 19.972 0.927979 18.46V5.356C0.927979 3.928 2.10398 2.752 3.53198 2.752H5.71598C6.05198 2.752 6.38798 3.004 6.38798 3.424C6.38798 3.844 6.13598 4.096 5.71598 4.096H3.53198C2.77598 4.096 2.18798 4.768 2.18798 5.44V18.544C2.18798 19.3 2.85998 19.972 3.53198 19.972H10.42C10.756 19.972 11.092 20.224 11.092 20.644C11.092 21.064 10.756 21.148 10.42 21.148Z" fill="white"/>
<path d="M16.468 14.26C16.132 14.26 15.796 14.008 15.796 13.588V5.272C15.796 4.516 15.124 3.928 14.368 3.928H12.184C11.848 3.928 11.512 3.676 11.512 3.256C11.512 2.836 11.764 2.584 12.184 2.584H14.368C15.796 2.584 17.056 3.76 17.056 5.188V13.504C17.14 14.008 16.804 14.26 16.468 14.26Z" fill="white"/>
<path d="M12.2679 6.27999H5.71594C5.37994 6.27999 5.04395 6.02799 5.04395 5.60799V3.33999C5.04395 1.82799 6.30395 0.483994 7.89995 0.483994H10.0839C11.5959 0.483994 12.9399 1.74399 12.9399 3.33999V5.60799C12.9399 6.02799 12.6039 6.27999 12.2679 6.27999ZM6.30395 5.01999H11.6799V3.42399C11.6799 2.58399 10.9239 1.82799 10.0839 1.82799H7.89995C7.05995 1.82799 6.30395 2.58399 6.30395 3.42399V5.01999Z" fill="white"/>
<path d="M13.192 9.30399H6.97595C6.63995 9.30399 6.30396 9.05199 6.30396 8.63199C6.30396 8.21199 6.55595 7.95999 6.97595 7.95999H13.192C13.528 7.95999 13.864 8.21199 13.864 8.63199C13.864 9.05199 13.528 9.30399 13.192 9.30399Z" fill="white"/>
<path d="M13.192 12.076H4.87598C4.53998 12.076 4.20398 11.824 4.20398 11.404C4.20398 10.984 4.45598 10.732 4.87598 10.732H13.192C13.528 10.732 13.864 10.984 13.864 11.404C13.864 11.824 13.528 12.076 13.192 12.076Z" fill="white"/>
<path d="M14.452 23.5C11.596 23.5 9.328 21.148 9.328 18.292C9.328 15.436 11.68 13.168 14.452 13.168C17.308 13.168 19.66 15.52 19.66 18.292C19.66 21.148 17.308 23.5 14.452 23.5ZM14.452 14.428C12.268 14.428 10.588 16.192 10.588 18.292C10.588 20.476 12.352 22.24 14.452 22.24C16.636 22.24 18.4 20.476 18.4 18.292C18.4 16.108 16.636 14.428 14.452 14.428Z" fill="white"/>
<path d="M13.78 20.812C13.612 20.812 13.444 20.728 13.36 20.644L11.512 18.88C11.26 18.628 11.26 18.208 11.512 17.956C11.764 17.704 12.184 17.704 12.436 17.956L13.78 19.3L16.3 16.36C16.552 16.108 16.888 16.024 17.224 16.276C17.56 16.528 17.56 16.864 17.308 17.2L14.284 20.56C14.116 20.644 13.948 20.728 13.78 20.812Z" fill="white"/>
</svg>
