<svg width="25" height="25" viewBox="0 0 25 25" fill="none" xmlns="http://www.w3.org/2000/svg">
<path d="M17.4192 4.18091L13.3332 0.167847C13.2236 0.0602722 13.0762 0 12.9226 0H2.59253C1.38708 0 0.40625 0.980682 0.40625 2.18628V17.8137C0.40625 19.0192 1.38693 20 2.59253 20H15.4082C16.6137 20 17.5945 19.0193 17.5945 17.8137V4.599C17.5945 4.44168 17.5313 4.29108 17.4192 4.18091V4.18091ZM13.5085 1.98273L15.5758 4.01306H13.6948C13.5921 4.01306 13.5085 3.92944 13.5085 3.82675V1.98273ZM15.4082 18.8281H2.59253C2.03329 18.8281 1.57812 18.3731 1.57812 17.8137V2.18628C1.57812 1.62689 2.03314 1.17188 2.59253 1.17188H12.3368V3.82675C12.3368 4.57565 12.9461 5.18494 13.695 5.18494H16.4226V17.8137C16.4226 18.3731 15.9676 18.8281 15.4082 18.8281V18.8281Z" fill="#6D728E"/>
<path d="M13.0685 9.29688H4.80859C4.48495 9.29688 4.22266 9.55917 4.22266 9.88281C4.22266 10.2065 4.48495 10.4688 4.80859 10.4688H13.0685C13.3921 10.4688 13.6544 10.2065 13.6544 9.88281C13.6544 9.55917 13.3921 9.29688 13.0685 9.29688Z" fill="#6D728E"/>
<path d="M4.80859 12.8125H11.5435C11.8672 12.8125 12.1295 12.5502 12.1295 12.2266C12.1295 11.9029 11.8672 11.6406 11.5435 11.6406H4.80859C4.48495 11.6406 4.22266 11.9029 4.22266 12.2266C4.22266 12.5502 4.48495 12.8125 4.80859 12.8125V12.8125Z" fill="#6D728E"/>
<path d="M12.356 13.9844H4.80859C4.48495 13.9844 4.22266 14.2467 4.22266 14.5703C4.22266 14.894 4.48495 15.1562 4.80859 15.1562H12.356C12.6795 15.1562 12.942 14.894 12.942 14.5703C12.942 14.2467 12.6795 13.9844 12.356 13.9844Z" fill="#6D728E"/>
</svg>
