<svg width="25" height="25" viewBox="0 0 25 25" fill="none" xmlns="http://www.w3.org/2000/svg">
<g clip-path="url(#clip0_250_2821)">
<g clip-path="url(#clip1_250_2821)">
<path d="M1.08232 12.0133C1.18074 12.2685 1.35433 12.4879 1.58014 12.6424C1.80594 12.7968 2.07331 12.8791 2.34689 12.8783L3.86686 12.8783V21.9404C3.86686 22.4867 4.08385 23.0105 4.47009 23.3968C4.85634 23.783 5.3802 24 5.92643 24L19.9315 24C20.4778 24 21.0016 23.783 21.3879 23.3968C21.7741 23.0105 21.9911 22.4867 21.9911 21.9404V12.8783H23.5152C23.7884 12.8792 24.0554 12.7976 24.2814 12.6441C24.5073 12.4905 24.6816 12.2723 24.7814 12.018C24.8812 11.7637 24.9017 11.4852 24.8404 11.219C24.7791 10.9528 24.6388 10.7113 24.4379 10.5263L14.9556 1.7566C14.4121 1.23016 13.6857 0.934868 12.929 0.932774C12.1772 0.934814 11.4559 1.23043 10.9188 1.7566L1.4448 10.5469C1.2452 10.7274 1.10406 10.9634 1.03948 11.2247C0.974895 11.4859 0.989813 11.7605 1.08232 12.0133ZM12.0475 2.92644C12.2851 2.6952 12.6036 2.56581 12.9352 2.56581C13.2667 2.56581 13.5852 2.6952 13.8228 2.92644L22.7737 11.2306H21.1673C20.9488 11.2306 20.7392 11.3174 20.5847 11.4719C20.4302 11.6264 20.3434 11.836 20.3434 12.0545V21.9404C20.3434 22.0497 20.3001 22.1544 20.2228 22.2317C20.1456 22.3089 20.0408 22.3523 19.9315 22.3523L5.92643 22.3523C5.81719 22.3523 5.71241 22.3089 5.63516 22.2317C5.55791 22.1544 5.51452 22.0497 5.51452 21.9404V12.0545C5.51452 11.836 5.42772 11.6264 5.27322 11.4719C5.11873 11.3174 4.90918 11.2306 4.69069 11.2306L3.08422 11.2306L12.0475 2.92644Z" fill="white" stroke="white" stroke-width="0.1"/>
<path d="M12.929 14.9379H13.7529C13.9714 14.9379 14.1809 15.0247 14.3354 15.1792C14.4899 15.3337 14.5767 15.5432 14.5767 15.7617C14.5767 15.9802 14.4899 16.1897 14.3354 16.3442C14.1809 16.4987 13.9714 16.5855 13.7529 16.5855H11.6933C11.4748 16.5855 11.2653 16.6723 11.1108 16.8268C10.9563 16.9813 10.8695 17.1909 10.8695 17.4094C10.8695 17.6279 10.9563 17.8374 11.1108 17.9919C11.2653 18.1464 11.4748 18.2332 11.6933 18.2332H12.1052V18.6451C12.1052 18.8636 12.192 19.0731 12.3465 19.2276C12.501 19.3821 12.7106 19.4689 12.929 19.4689C13.1475 19.4689 13.3571 19.3821 13.5116 19.2276C13.6661 19.0731 13.7529 18.8636 13.7529 18.6451V18.2332C14.4084 18.2332 15.037 17.9728 15.5005 17.5093C15.964 17.0458 16.2244 16.4172 16.2244 15.7617C16.2244 15.1062 15.964 14.4776 15.5005 14.0141C15.037 13.5506 14.4084 13.2902 13.7529 13.2902H12.929C12.7106 13.2902 12.501 13.2034 12.3465 13.0489C12.192 12.8944 12.1052 12.6849 12.1052 12.4664V12.0545C12.1052 11.836 12.192 11.6264 12.3465 11.4719C12.501 11.3174 12.7106 11.2306 12.929 11.2306H14.9886C15.2071 11.2306 15.4167 11.1438 15.5712 10.9893C15.7257 10.8348 15.8125 10.6253 15.8125 10.4068C15.8125 10.1883 15.7257 9.97877 15.5712 9.82427C15.4167 9.66978 15.2071 9.58298 14.9886 9.58298H14.5767V9.17107C14.5767 8.95257 14.4899 8.74303 14.3354 8.58853C14.1809 8.43403 13.9714 8.34724 13.7529 8.34724C13.5344 8.34724 13.3248 8.43403 13.1703 8.58853C13.0158 8.74303 12.929 8.95257 12.929 9.17107V9.58298C12.2736 9.58298 11.6449 9.84337 11.1814 10.3069C10.7179 10.7704 10.4576 11.399 10.4576 12.0545V12.4664C10.4576 13.1219 10.7179 13.7505 11.1814 14.214C11.6449 14.6775 12.2736 14.9379 12.929 14.9379Z" fill="white" stroke="white" stroke-width="0.1"/>
</g>
</g>
<defs>
<clipPath id="clip0_250_2821">
<rect width="25" height="25" fill="white" transform="translate(25 25) rotate(-180)"/>
</clipPath>
<clipPath id="clip1_250_2821">
<rect width="27" height="27" fill="white" transform="translate(26 24) rotate(-180)"/>
</clipPath>
</defs>
</svg>
