<svg width="24" height="24" viewBox="0 0 24 24" fill="none" xmlns="http://www.w3.org/2000/svg">
<g clip-path="url(#clip0_250_3149)">
<path d="M22.5526 12.5308C22.1671 12.4846 21.8172 12.76 21.7711 13.1456C21.1932 17.9872 17.0697 21.6385 12.1796 21.6385C7.78132 21.6385 4.00409 18.6848 2.86794 14.5683L3.70912 15.0303C4.0495 15.2172 4.47705 15.0927 4.66381 14.7525C4.85076 14.4121 4.72643 13.9846 4.38605 13.7976L2.22836 12.6126C1.88834 12.4258 1.46116 12.5498 1.27403 12.8896L0.0873455 15.0446C-0.0999685 15.3848 0.023992 15.8123 0.364014 15.9996C0.715204 16.1639 1.11657 16.0831 1.31908 15.723L1.5941 15.2236C2.98733 19.7939 7.2419 23.0447 12.1796 23.0447C17.7815 23.0447 22.5052 18.8606 23.1673 13.3122C23.2134 12.9266 22.938 12.5767 22.5526 12.5308Z" fill="white"/>
<path d="M23.5746 6.94186C23.2183 6.78824 22.8045 6.95248 22.6507 7.30917L22.4292 7.82259C21.7368 6.1298 20.6258 4.61499 19.1946 3.44222C17.2243 1.82707 14.733 0.937744 12.1796 0.937744C9.62625 0.937744 7.13496 1.82707 5.16441 3.44222C3.22114 5.03485 1.86691 7.25772 1.35129 9.70104C1.27109 10.081 1.51425 10.454 1.89419 10.5342C2.27358 10.6144 2.64711 10.3714 2.72713 9.99144C3.17701 7.85994 4.35912 5.92033 6.05575 4.52967C7.77545 3.12014 9.95034 2.34397 12.1796 2.34397C14.4087 2.34397 16.5836 3.12014 18.3033 4.52967C19.6251 5.6129 20.6344 7.02957 21.2287 8.61048L20.3385 8.22761C19.9818 8.07435 19.5682 8.23896 19.4147 8.59565C19.2613 8.95233 19.4261 9.36578 19.7828 9.51922L22.0445 10.492C22.4293 10.6512 22.8041 10.4886 22.968 10.1246L23.9419 7.8658C24.0958 7.5093 23.9313 7.09567 23.5746 6.94186Z" fill="white"/>
<path d="M16.5131 6.81871C16.7149 6.41168 16.7458 5.95026 16.6006 5.51978C16.4554 5.08931 16.1513 4.74123 15.7443 4.53945C14.9038 4.12308 13.8816 4.46804 13.465 5.3083C13.374 5.49213 13.318 5.68695 13.2971 5.88507C12.754 5.83509 12.202 5.88562 11.6669 6.03961C10.602 6.34576 9.69619 7.03459 9.11649 7.97885L7.2179 11.0711C6.9643 11.0257 6.7021 11.0445 6.45125 11.1291C6.05886 11.2615 5.74154 11.5387 5.55789 11.9095L5.43265 12.162C5.05326 12.9277 5.36746 13.8596 6.13338 14.2389L10.2433 16.2754C9.83865 17.1173 10.0199 18.0634 11.0702 18.5918C11.991 18.9701 13.016 18.5995 13.4141 17.8466L13.8486 18.0618C14.0658 18.1694 14.2998 18.2238 14.5352 18.2238C14.702 18.2238 14.8696 18.1965 15.0322 18.1416C15.4244 18.0094 15.7417 17.7322 15.9255 17.3612L16.0506 17.1087C16.2344 16.7377 16.2628 16.3175 16.1304 15.9251C16.0458 15.6743 15.9019 15.4542 15.7122 15.2799L17.0225 11.8963C17.4226 10.8629 17.4218 9.72492 17.0205 8.69222C16.8189 8.17331 16.5246 7.70346 16.1561 7.30155C16.3009 7.16496 16.4221 7.00255 16.5131 6.81871ZM14.9879 5.76624C15.151 5.76624 15.2832 5.89844 15.2832 6.0614C15.2832 6.22454 15.151 6.35656 14.9879 6.35656C14.8249 6.35656 14.6927 6.22436 14.6927 6.0614C14.6927 5.89844 14.8249 5.76624 14.9879 5.76624ZM11.9731 17.3506C11.8808 17.3819 11.7819 17.3751 11.6946 17.3319C11.6072 17.2887 11.5421 17.214 11.5109 17.1217C11.4866 17.0496 11.4857 16.9732 11.5071 16.9018L12.1505 17.2206C12.1064 17.2808 12.0452 17.3264 11.9731 17.3506ZM15.7111 11.3886L14.2838 15.0741C14.083 15.5295 14.275 16.0685 14.7253 16.2919H14.7255C14.7989 16.3311 14.8258 16.4116 14.7907 16.4845L14.6654 16.737C14.6235 16.8103 14.5488 16.8342 14.473 16.8018L6.75776 12.979C6.68672 12.9439 6.65742 12.8574 6.69258 12.7866L6.81782 12.5341C6.85169 12.4716 6.91743 12.4273 7.01044 12.4691C7.23475 12.5802 7.48889 12.5972 7.72619 12.5174C7.95013 12.4418 8.13378 12.2882 8.24712 12.0825L10.3147 8.71474C10.7104 8.07022 11.3287 7.60001 12.0557 7.39091C12.7824 7.18181 13.556 7.25157 14.2335 7.58738C14.2337 7.58738 14.2337 7.58738 14.2338 7.58756C14.234 7.58756 14.234 7.58756 14.2342 7.58774C14.9119 7.92355 15.4359 8.49667 15.7098 9.20161C15.9838 9.90656 15.9841 10.6833 15.7111 11.3886Z" fill="white"/>
</g>
<defs>
<clipPath id="clip0_250_3149">
<rect width="24" height="24" fill="white"/>
</clipPath>
</defs>
</svg>
