<svg width="25" height="25" viewBox="0 0 25 25" fill="none" xmlns="http://www.w3.org/2000/svg">
<path d="M20.0391 5.10455H4.28906C3.79178 5.10455 3.31487 5.3021 2.96324 5.65373C2.61161 6.00536 2.41406 6.48227 2.41406 6.97955V18.3196C2.41406 18.8168 2.61161 19.2937 2.96324 19.6454C3.31487 19.997 3.79178 20.1946 4.28906 20.1946H20.0391C20.5363 20.1946 21.0133 19.997 21.3649 19.6454C21.7165 19.2937 21.9141 18.8168 21.9141 18.3196V6.97955C21.9141 6.48227 21.7165 6.00536 21.3649 5.65373C21.0133 5.3021 20.5363 5.10455 20.0391 5.10455ZM21.1641 18.3196C21.1641 18.6179 21.0455 18.9041 20.8346 19.115C20.6236 19.326 20.3374 19.4446 20.0391 19.4446H4.28906C3.99069 19.4446 3.70455 19.326 3.49357 19.115C3.28259 18.9041 3.16406 18.6179 3.16406 18.3196V6.97955C3.16406 6.68118 3.28259 6.39504 3.49357 6.18406C3.70455 5.97308 3.99069 5.85455 4.28906 5.85455H20.0391C20.3374 5.85455 20.6236 5.97308 20.8346 6.18406C21.0455 6.39504 21.1641 6.68118 21.1641 6.97955V18.3196Z" fill="#6D728E" stroke="#6D728E" stroke-width="0.4"/>
<path d="M18.5391 14.8996H11.4141C11.3146 14.8996 11.2192 14.9391 11.1489 15.0094C11.0786 15.0797 11.0391 15.1751 11.0391 15.2746C11.0391 15.374 11.0786 15.4694 11.1489 15.5397C11.2192 15.6101 11.3146 15.6496 11.4141 15.6496H18.5391C18.6385 15.6496 18.7339 15.6101 18.8042 15.5397C18.8746 15.4694 18.9141 15.374 18.9141 15.2746C18.9141 15.1751 18.8746 15.0797 18.8042 15.0094C18.7339 14.9391 18.6385 14.8996 18.5391 14.8996Z" fill="#6D728E" stroke="#6D728E" stroke-width="0.4"/>
<path d="M18.5391 9.64957H11.4141C11.3146 9.64957 11.2192 9.68908 11.1489 9.7594C11.0786 9.82973 11.0391 9.92511 11.0391 10.0246C11.0391 10.124 11.0786 10.2194 11.1489 10.2897C11.2192 10.3601 11.3146 10.3996 11.4141 10.3996H18.5391C18.6385 10.3996 18.7339 10.3601 18.8042 10.2897C18.8746 10.2194 18.9141 10.124 18.9141 10.0246C18.9141 9.92511 18.8746 9.82973 18.8042 9.7594C18.7339 9.68908 18.6385 9.64957 18.5391 9.64957Z" fill="#6D728E" stroke="#6D728E" stroke-width="0.4"/>
<path d="M6.7854 10.8421C6.82052 10.8801 6.86314 10.9105 6.91058 10.9313C6.95801 10.9521 7.00924 10.9628 7.06103 10.9628C7.11282 10.9628 7.16404 10.9521 7.21148 10.9313C7.25892 10.9105 7.30154 10.8801 7.33665 10.8421L9.0654 8.96707C9.09889 8.93088 9.12492 8.88844 9.14201 8.84218C9.15909 8.79593 9.1669 8.74676 9.16499 8.69749C9.16307 8.64821 9.15147 8.5998 9.13084 8.55501C9.11022 8.51022 9.08097 8.46993 9.04478 8.43645C9.00858 8.40296 8.96615 8.37693 8.91989 8.35984C8.87364 8.34276 8.82447 8.33495 8.77519 8.33686C8.72592 8.33878 8.67751 8.35038 8.63272 8.371C8.58793 8.39163 8.54764 8.42087 8.51415 8.45707L7.06103 10.0339L6.0654 8.95582C6.03322 8.91589 5.99319 8.88299 5.94779 8.85915C5.90239 8.83531 5.85258 8.82103 5.80145 8.8172C5.75031 8.81337 5.69893 8.82007 5.65048 8.83688C5.60204 8.8537 5.55756 8.88027 5.51979 8.91495C5.48202 8.94964 5.45176 8.9917 5.43089 9.03855C5.41002 9.08539 5.39899 9.13601 5.39846 9.18729C5.39793 9.23857 5.40792 9.28941 5.42782 9.33667C5.44772 9.38394 5.47711 9.42661 5.51415 9.46207L6.7854 10.8421Z" fill="#6D728E" stroke="#6D728E" stroke-width="0.4"/>
<path d="M8.10469 13.3996H6.47344C6.19181 13.4006 5.92207 13.5133 5.72346 13.7129C5.52484 13.9126 5.41357 14.1829 5.41406 14.4646V16.0846C5.41357 16.3662 5.52484 16.6365 5.72346 16.8362C5.92207 17.0359 6.19181 17.1486 6.47344 17.1496H8.10469C8.38632 17.1486 8.65605 17.0359 8.85467 16.8362C9.05329 16.6365 9.16456 16.3662 9.16406 16.0846V14.4646C9.16456 14.1829 9.05329 13.9126 8.85467 13.7129C8.65605 13.5133 8.38632 13.4006 8.10469 13.3996ZM8.41406 16.0846C8.41456 16.1256 8.40694 16.1663 8.39163 16.2044C8.37633 16.2425 8.35365 16.2771 8.3249 16.3064C8.29614 16.3357 8.26189 16.359 8.22409 16.375C8.1863 16.391 8.14572 16.3993 8.10469 16.3996H6.47344C6.43241 16.3993 6.39183 16.391 6.35403 16.375C6.31624 16.359 6.28198 16.3357 6.25323 16.3064C6.22448 16.2771 6.2018 16.2425 6.18649 16.2044C6.17119 16.1663 6.16357 16.1256 6.16406 16.0846V14.4646C6.16357 14.4235 6.17119 14.3828 6.18649 14.3447C6.2018 14.3067 6.22448 14.272 6.25323 14.2427C6.28198 14.2134 6.31624 14.1901 6.35403 14.1742C6.39183 14.1582 6.43241 14.1498 6.47344 14.1496H8.10469C8.14572 14.1498 8.1863 14.1582 8.22409 14.1742C8.26189 14.1901 8.29614 14.2134 8.3249 14.2427C8.35365 14.272 8.37633 14.3067 8.39163 14.3447C8.40694 14.3828 8.41456 14.4235 8.41406 14.4646V16.0846Z" fill="#6D728E" stroke="#6D728E" stroke-width="0.4"/>
</svg>
