<svg width="19" height="22" viewBox="0 0 19 22" fill="none" xmlns="http://www.w3.org/2000/svg">
<path d="M6.64001 21.332C5.54801 21.332 4.45601 20.996 3.36401 20.408C1.51601 19.316 0.256013 17.384 0.0880127 15.284V13.94C0.256013 12.176 1.09601 10.496 2.35601 9.40399C3.86801 8.14399 5.96801 7.47198 7.90001 7.89198C8.15201 7.97599 8.32001 8.14399 8.32001 8.39599V12.092C8.32001 12.26 8.23601 12.428 8.15201 12.512C7.98401 12.68 7.81601 12.68 7.64801 12.68C6.89201 12.428 6.13601 12.596 5.54801 12.932C5.12801 13.184 4.79201 13.604 4.62401 14.108C4.54001 14.36 4.54001 14.696 4.54001 14.948C4.54001 15.032 4.54001 15.2 4.54001 15.284C4.70801 16.292 5.63201 17.132 6.72401 17.132C6.80801 17.132 6.89201 17.132 6.97601 17.132C7.73201 17.132 8.48801 16.712 8.82401 16.04C8.99201 15.704 9.07601 15.536 9.07601 15.452C9.16001 13.94 9.16001 12.512 9.16001 11C8.90801 7.63999 8.90801 4.19599 8.90801 0.919985C8.90801 0.667985 9.16001 0.415985 9.41201 0.415985H12.688C12.94 0.415985 13.192 0.583985 13.192 0.919985C13.276 2.26399 13.78 3.35599 14.452 4.02799C15.208 4.78399 16.3 5.20398 17.728 5.37198C17.98 5.37198 18.148 5.62399 18.148 5.87599V9.23599C18.148 9.48799 17.896 9.73999 17.644 9.73999C16.3 9.73999 14.956 9.40399 13.948 8.81599C13.78 8.73199 13.528 8.64799 13.36 8.47999V14.864C13.276 16.292 12.856 17.468 12.184 18.476C11.008 20.156 9.07601 21.248 6.89201 21.332C6.89201 21.332 6.72401 21.332 6.64001 21.332ZM6.80801 8.89999C5.46401 8.89999 4.12001 9.40399 3.02801 10.328C1.93601 11.252 1.26401 12.596 1.09601 14.108V15.284C1.26401 16.964 2.27201 18.644 3.86801 19.568C4.87601 20.156 5.88401 20.408 6.89201 20.324C8.65601 20.24 10.42 19.316 11.344 17.888C11.932 17.132 12.268 16.04 12.352 14.864V7.63999C12.352 7.47199 12.436 7.30399 12.604 7.21999C12.772 7.13599 12.94 7.13599 13.108 7.21999C13.528 7.47199 13.948 7.72399 14.452 7.97599C15.208 8.39599 16.132 8.64799 17.14 8.73199V6.29599C15.712 6.04399 14.536 5.53999 13.78 4.69999C12.772 3.77599 12.352 2.34799 12.268 1.42399H10C10 4.53199 10 7.80799 10.252 11C10.252 12.596 10.252 14.024 10.168 15.536C10.168 15.956 9.91601 16.376 9.74801 16.628C9.24401 17.552 8.15201 18.224 7.06001 18.224C6.97601 18.224 6.89201 18.224 6.80801 18.224C5.29601 18.224 3.86801 16.964 3.61601 15.452C3.61601 15.284 3.61601 15.2 3.61601 15.116C3.61601 14.696 3.61601 14.276 3.78401 13.856C3.95201 13.268 4.45601 12.596 5.04401 12.176C5.71601 11.756 6.55601 11.588 7.31201 11.672V9.06799C7.14401 8.89999 6.97601 8.89999 6.80801 8.89999Z" fill="white"/>
</svg>
