<svg width="22" height="24" viewBox="0 0 22 24" fill="none" xmlns="http://www.w3.org/2000/svg">
<path d="M17.9448 23.8972H3.58897C1.66318 23.8972 0 22.3216 0 20.3082V10.5918C0 8.66599 1.66318 7.09034 3.58897 7.09034H6.39011C6.74025 7.09034 7.0904 7.35295 7.0904 7.79063C7.0904 8.22831 6.74025 8.40338 6.39011 8.40338H3.58897C2.36347 8.40338 1.31304 9.45381 1.31304 10.5918V20.3082C1.31304 21.5337 2.36347 22.5842 3.58897 22.5842H17.9448C19.1703 22.5842 20.2208 21.5337 20.2208 20.3082V10.5918C20.2208 9.36627 19.1703 8.40338 17.9448 8.40338H15.1437C14.7935 8.40338 14.4434 8.14077 14.4434 7.70309C14.4434 7.26542 14.706 7.00281 15.1437 7.00281H17.9448C19.8706 7.00281 21.5338 8.57845 21.5338 10.5042V20.2207C21.5338 22.234 19.8706 23.8972 17.9448 23.8972Z" fill="white"/>
<path d="M10.7669 18.645C10.5918 18.645 10.4168 18.5575 10.3292 18.4699L2.27593 10.7668C2.01333 10.5042 2.01333 10.0665 2.27593 9.80389C2.53854 9.54128 2.97622 9.54128 3.23883 9.80389L10.8544 17.0694L18.4701 9.80389C18.7327 9.54128 19.1703 9.54128 19.4329 9.80389C19.6956 10.0665 19.6956 10.5042 19.4329 10.7668L11.3797 18.4699C11.117 18.5575 10.942 18.645 10.7669 18.645Z" fill="white"/>
<path d="M2.71361 21.5338C2.53854 21.5338 2.36347 21.4462 2.27594 21.3587C2.01333 21.0961 2.01333 20.6584 2.27594 20.3958L6.30258 16.5442L7.87823 15.1437C8.14083 14.8811 8.57851 14.9686 8.84112 15.2312C9.10373 15.4938 9.01619 15.9315 8.75358 16.1941L7.17794 17.5947L3.15129 21.4462C3.06376 21.4462 2.88869 21.5338 2.71361 21.5338Z" fill="white"/>
<path d="M18.8202 21.5338C18.6451 21.5338 18.4701 21.4462 18.3825 21.3587L14.3559 17.4196L12.7802 16.019C12.5176 15.7564 12.5176 15.4063 12.6927 15.0561C12.9553 14.7935 13.393 14.7935 13.6556 14.9686L15.2312 16.3691L19.2579 20.2207C19.5205 20.4833 19.5205 20.921 19.2579 21.1836C19.1703 21.4462 18.9953 21.5338 18.8202 21.5338Z" fill="white"/>
<path d="M10.7669 11.117C7.70315 11.117 5.16461 8.66604 5.16461 5.51476C5.16461 2.451 7.61561 0 10.7669 0C13.9182 0 16.3692 2.451 16.3692 5.51476C16.3692 8.66604 13.8307 11.117 10.7669 11.117ZM10.7669 1.40057C8.40343 1.40057 6.47765 3.32636 6.47765 5.60229C6.47765 7.87822 8.40343 9.89154 10.7669 9.89154C13.1304 9.89154 15.0562 7.96576 15.0562 5.60229C15.0562 3.23882 13.1304 1.40057 10.7669 1.40057Z" fill="white"/>
<path d="M12.7802 6.65282H10.4168C10.0666 6.65282 9.71649 6.39022 9.71649 5.95254V2.71371C9.71649 2.36357 9.9791 2.01343 10.4168 2.01343C10.8545 2.01343 11.1171 2.27604 11.1171 2.71371V5.33979H12.8678C13.2179 5.33979 13.5681 5.60239 13.5681 6.04007C13.5681 6.47775 13.1304 6.65282 12.7802 6.65282Z" fill="white"/>
</svg>
