<svg width="20" height="24" viewBox="0 0 20 24" fill="none" xmlns="http://www.w3.org/2000/svg">
<path d="M10.42 21.148H3.53198C2.10398 21.148 0.927979 19.972 0.927979 18.46V5.35595C0.927979 3.92795 2.10398 2.75195 3.53198 2.75195H5.71598C6.05198 2.75195 6.38798 3.00395 6.38798 3.42395C6.38798 3.84395 6.13598 4.09595 5.71598 4.09595H3.53198C2.77598 4.09595 2.18798 4.76795 2.18798 5.43995V18.544C2.18798 19.3 2.85998 19.972 3.53198 19.972H10.42C10.756 19.972 11.092 20.224 11.092 20.644C11.092 21.064 10.756 21.148 10.42 21.148Z" fill="white"/>
<path d="M16.468 14.26C16.132 14.26 15.796 14.008 15.796 13.588V5.27198C15.796 4.51598 15.124 3.92798 14.368 3.92798H12.184C11.848 3.92798 11.512 3.67598 11.512 3.25598C11.512 2.83598 11.764 2.58398 12.184 2.58398H14.368C15.796 2.58398 17.056 3.75998 17.056 5.18798V13.504C17.14 14.008 16.804 14.26 16.468 14.26Z" fill="white"/>
<path d="M12.268 6.28001H5.71601C5.38001 6.28001 5.04401 6.02801 5.04401 5.60801V3.34001C5.04401 1.82801 6.30401 0.484009 7.90001 0.484009H10.084C11.596 0.484009 12.94 1.74401 12.94 3.34001V5.60801C12.94 6.02801 12.604 6.28001 12.268 6.28001ZM6.30401 5.02001H11.68V3.42401C11.68 2.58401 10.924 1.82801 10.084 1.82801H7.90001C7.06001 1.82801 6.30401 2.58401 6.30401 3.42401V5.02001Z" fill="white"/>
<path d="M13.192 9.30396H6.97595C6.63995 9.30396 6.30396 9.05196 6.30396 8.63196C6.30396 8.21196 6.55595 7.95996 6.97595 7.95996H13.192C13.528 7.95996 13.864 8.21196 13.864 8.63196C13.864 9.05196 13.528 9.30396 13.192 9.30396Z" fill="white"/>
<path d="M13.192 12.0759H4.87598C4.53998 12.0759 4.20398 11.8239 4.20398 11.4039C4.20398 10.9839 4.45598 10.7319 4.87598 10.7319H13.192C13.528 10.7319 13.864 10.9839 13.864 11.4039C13.864 11.8239 13.528 12.0759 13.192 12.0759Z" fill="white"/>
<path d="M14.452 23.5C11.596 23.5 9.328 21.148 9.328 18.292C9.328 15.436 11.68 13.168 14.452 13.168C17.308 13.168 19.66 15.52 19.66 18.292C19.66 21.148 17.308 23.5 14.452 23.5ZM14.452 14.428C12.268 14.428 10.588 16.192 10.588 18.292C10.588 20.476 12.352 22.24 14.452 22.24C16.636 22.24 18.4 20.476 18.4 18.292C18.4 16.108 16.636 14.428 14.452 14.428Z" fill="white"/>
<path d="M14.452 21.1481C14.116 21.1481 13.78 20.8961 13.78 20.4761V16.0241C13.78 15.6881 14.032 15.3521 14.452 15.3521C14.872 15.3521 15.124 15.6041 15.124 16.0241V20.4761C15.04 20.8121 14.788 21.1481 14.452 21.1481Z" fill="white"/>
<path d="M16.636 18.88H12.184C11.848 18.88 11.512 18.628 11.512 18.208C11.512 17.788 11.764 17.536 12.184 17.536H16.636C16.972 17.536 17.308 17.788 17.308 18.208C17.308 18.628 16.972 18.88 16.636 18.88Z" fill="white"/>
</svg>
