<svg width="18" height="22" viewBox="0 0 18 22" fill="none" xmlns="http://www.w3.org/2000/svg">
<path d="M16.468 21.5H2.02C1.684 21.5 1.348 21.332 1.18 20.996C1.012 20.66 1.096 20.324 1.264 19.988L8.32 11L1.012 2.012C0.759999 1.76 0.759999 1.34 0.927999 1.004C1.096 0.668 1.432 0.5 1.768 0.5H16.552C17.056 0.5 17.476 0.92 17.476 1.424V5.624C17.476 6.128 17.056 6.548 16.552 6.548C16.048 6.548 15.628 6.128 15.628 5.624V2.348H3.616L10.168 10.412C10.42 10.748 10.42 11.252 10.168 11.588L3.868 19.652H15.46V16.628C15.46 16.124 15.88 15.704 16.384 15.704C16.888 15.704 17.308 16.124 17.308 16.628V20.576C17.392 21.08 16.972 21.5 16.468 21.5Z" fill="white"/>
</svg>
