<svg width="30" height="26" viewBox="0 0 30 26" fill="none" xmlns="http://www.w3.org/2000/svg">
<path d="M23.0083 6.69888C22.5896 5.02523 21.6237 3.53944 20.2641 2.47742C18.9045 1.41541 17.2291 0.83807 15.5039 0.837068C13.7786 0.836066 12.1025 1.41147 10.7417 2.4719C9.38085 3.53233 8.41329 5.017 7.99265 6.69016C6.00849 6.87637 4.17232 7.81977 2.86554 9.3244C1.55876 10.829 0.881824 12.7792 0.975342 14.7699C1.06886 16.7606 1.92564 18.6388 3.36772 20.0143C4.8098 21.3898 6.72633 22.1569 8.71922 22.1563H11.6255C11.8824 22.1563 12.1288 22.0542 12.3105 21.8725C12.4922 21.6908 12.5942 21.4444 12.5942 21.1875C12.5942 20.9306 12.4922 20.6842 12.3105 20.5025C12.1288 20.3208 11.8824 20.2188 11.6255 20.2188H8.71922C7.95591 20.221 7.19964 20.0728 6.49358 19.7828C5.78752 19.4927 5.14551 19.0665 4.60419 18.5283C3.51096 17.4414 2.89426 15.9648 2.88976 14.4232C2.88527 12.8816 3.49334 11.4014 4.58022 10.3082C5.66709 9.21495 7.14374 8.59825 8.68531 8.59375C8.93388 8.61246 9.18055 8.53818 9.37745 8.38531C9.57435 8.23245 9.70745 8.01189 9.75094 7.76644C9.9482 6.38313 10.6379 5.11742 11.6934 4.20176C12.7489 3.28611 14.0993 2.78199 15.4966 2.78199C16.8939 2.78199 18.2443 3.28611 19.2998 4.20176C20.3553 5.11742 21.045 6.38313 21.2422 7.76644C21.2929 8.00337 21.4242 8.21537 21.6138 8.36625C21.8034 8.51713 22.0395 8.59754 22.2817 8.59375C23.8233 8.59375 25.3017 9.20614 26.3918 10.2962C27.4818 11.3863 28.0942 12.8647 28.0942 14.4063C28.0942 15.9478 27.4818 17.4263 26.3918 18.5163C25.3017 19.6064 23.8233 20.2188 22.2817 20.2188H19.3755C19.1185 20.2188 18.8721 20.3208 18.6905 20.5025C18.5088 20.6842 18.4067 20.9306 18.4067 21.1875C18.4067 21.4444 18.5088 21.6908 18.6905 21.8725C18.8721 22.0542 19.1185 22.1563 19.3755 22.1563H22.2817C24.26 22.1355 26.1555 21.359 27.5798 19.9859C29.004 18.6127 29.8492 16.7468 29.9421 14.7706C30.035 12.7943 29.3685 10.8574 28.0794 9.35666C26.7902 7.85594 24.9759 6.90506 23.0083 6.69888V6.69888Z" fill="#6D728E"/>
<path d="M19.6587 15.0912C19.8414 15.2676 20.0861 15.3653 20.3401 15.3631C20.5941 15.3609 20.8371 15.259 21.0167 15.0794C21.1963 14.8997 21.2982 14.6568 21.3004 14.4028C21.3026 14.1488 21.2049 13.9041 21.0285 13.7214L16.1847 8.8776C16.0031 8.69599 15.7567 8.59396 15.4998 8.59396C15.2429 8.59396 14.9966 8.69599 14.8149 8.8776L9.97116 13.7214C9.79469 13.9041 9.69705 14.1488 9.69926 14.4028C9.70146 14.6568 9.80334 14.8997 9.98296 15.0794C10.1626 15.259 10.4055 15.3609 10.6596 15.3631C10.9136 15.3653 11.1583 15.2676 11.341 15.0912L14.5311 11.9011V24.0938C14.5311 24.3507 14.6331 24.5971 14.8148 24.7788C14.9965 24.9604 15.2429 25.0625 15.4998 25.0625C15.7567 25.0625 16.0031 24.9604 16.1848 24.7788C16.3665 24.5971 16.4686 24.3507 16.4686 24.0938V11.9011L19.6587 15.0912Z" fill="#6D728E"/>
</svg>
