<svg width="18" height="24" viewBox="0 0 18 24" fill="none" xmlns="http://www.w3.org/2000/svg">
<path d="M3.448 20.8199C2.272 20.8199 1.348 19.8119 1.348 18.6359V5.27995C1.348 4.01995 2.272 3.09595 3.532 3.09595H14.536C15.796 3.09595 16.72 4.01995 16.72 5.27995V18.6359C16.72 19.896 15.796 20.8199 14.536 20.8199H3.616C3.616 20.8199 3.532 20.8199 3.448 20.8199ZM3.532 3.93595C2.776 3.93595 2.188 4.52395 2.188 5.27995V18.6359C2.188 19.3919 2.86 20.0639 3.616 19.9799H14.536C15.292 19.9799 15.88 19.3919 15.88 18.6359V5.27995C15.88 4.52395 15.292 3.93595 14.536 3.93595H3.532Z" fill="white"/>
<path d="M14.116 19.14H4.036C3.532 19.14 3.112 18.72 3.112 18.216V5.78399C3.112 5.27999 3.532 4.85999 4.036 4.85999H14.2C14.704 4.85999 15.124 5.27999 15.124 5.78399V18.132C15.124 18.72 14.704 19.14 14.116 19.14ZM4.036 5.69999C3.952 5.69999 3.952 5.78399 3.952 5.78399V18.216C3.952 18.3 4.036 18.3 4.036 18.3H14.116C14.2 18.3 14.284 18.216 14.284 18.132V5.78399C14.284 5.69999 14.2 5.69999 14.2 5.69999H4.036Z" fill="white"/>
<path d="M1.768 10.992H0.928001C0.508001 10.992 0.256001 10.656 0.256001 10.32V8.30396C0.256001 7.88396 0.592001 7.63196 0.928001 7.63196H1.768" fill="white"/>
<path d="M16.384 10.992H17.224C17.644 10.992 17.896 10.656 17.896 10.32V8.30396C17.896 7.88396 17.56 7.63196 17.224 7.63196H16.384" fill="white"/>
<path d="M16.384 16.452H17.224C17.644 16.452 17.896 16.116 17.896 15.78V14.856C17.896 14.436 17.56 14.184 17.224 14.184H16.384" fill="white"/>
<path d="M12.184 23.676H5.968C5.38 23.676 4.876 23.34 4.708 22.752L3.952 20.568C3.868 20.4 3.952 20.316 4.036 20.148C4.12 19.98 4.204 19.98 4.372 19.98H13.78C13.948 19.98 14.032 20.064 14.116 20.148C14.2 20.232 14.2 20.4 14.2 20.568L13.444 22.752C13.192 23.34 12.688 23.676 12.184 23.676ZM4.96 20.904L5.548 22.5C5.632 22.668 5.716 22.836 5.968 22.836H12.184C12.352 22.836 12.52 22.668 12.688 22.5L13.192 20.904H4.96Z" fill="white"/>
<path d="M13.78 3.93597H4.372C4.204 3.93597 4.12 3.85197 4.036 3.76797C3.952 3.68397 3.952 3.51597 3.952 3.34797L4.708 1.16397C4.792 0.659975 5.38 0.323975 5.968 0.323975H12.184C12.688 0.323975 13.192 0.659975 13.36 1.16397L14.116 3.26397C14.2 3.34797 14.2 3.43197 14.2 3.51597C14.2 3.76797 14.032 3.93597 13.78 3.93597ZM4.96 3.09597H13.192L12.604 1.49997C12.52 1.33197 12.352 1.16397 12.184 1.16397H5.968C5.716 1.16397 5.548 1.33197 5.548 1.41597L4.96 3.09597Z" fill="white"/>
<path d="M10.084 14.436H8.572C8.404 14.436 8.236 14.268 8.152 14.1L7.396 10.572L6.388 12.672C6.304 12.84 6.136 12.924 5.968 12.924H3.868C3.616 12.924 3.448 12.756 3.448 12.504C3.448 12.252 3.616 12.084 3.868 12.084H5.8L7.228 9.14397C7.312 8.97597 7.48 8.89197 7.648 8.89197C7.816 8.89197 7.984 9.05997 7.984 9.22797L8.908 13.68H9.748L10.588 10.068C10.588 9.89997 10.756 9.81597 10.924 9.73197C11.092 9.73197 11.26 9.73197 11.344 9.89997L12.856 12.084H14.704C14.956 12.084 15.124 12.252 15.124 12.504C15.124 12.756 14.956 12.84 14.704 12.84H12.604C12.436 12.84 12.352 12.756 12.268 12.672L11.176 11.076L10.504 14.1C10.42 14.268 10.252 14.436 10.084 14.436Z" fill="white"/>
</svg>
