<svg width="21" height="21" viewBox="0 0 21 21" fill="none" xmlns="http://www.w3.org/2000/svg">
<g clip-path="url(#clip0_250_3100)">
<path d="M20.8199 18.2097L17.4595 14.8494L18.7645 13.5443C18.9153 13.3936 18.9773 13.1755 18.9283 12.968C18.8792 12.7605 18.7264 12.5931 18.5241 12.5257L10.6939 9.91566C10.4728 9.84188 10.229 9.8995 10.0643 10.0643C9.89954 10.2291 9.842 10.4728 9.9157 10.6938L12.5258 18.524C12.5932 18.7263 12.7606 18.8792 12.9681 18.9282C13.1755 18.9773 13.3937 18.9153 13.5444 18.7645L14.8495 17.4595L18.2098 20.8198C18.4498 21.0599 18.8396 21.06 19.0798 20.8198L20.8199 19.0797C21.0599 18.8397 21.0601 18.4499 20.8199 18.2097ZM18.6448 19.5147L15.2844 16.1544C15.0444 15.9143 14.6546 15.9142 14.4144 16.1544L13.3782 17.1906L11.472 11.472L17.1906 13.3782L16.1544 14.4144C15.9143 14.6545 15.9142 15.0443 16.1544 15.2844L19.5148 18.6448L18.6448 19.5147Z" fill="white"/>
<path d="M10.4994 19.7683C5.38843 19.7683 1.23039 15.6103 1.23039 10.4994C1.23039 5.38843 5.38843 1.23039 10.4994 1.23039C15.6103 1.23039 19.7683 5.38843 19.7683 10.4994C19.7683 10.8391 20.0438 11.1146 20.3835 11.1146C20.7233 11.1146 20.9987 10.8391 20.9987 10.4994C20.9987 4.72656 16.2714 0 10.4994 0C4.72656 0 0 4.7273 0 10.4994C0 16.2722 4.7273 20.9987 10.4994 20.9987C10.8391 20.9987 11.1146 20.7233 11.1146 20.3835C11.1146 20.0438 10.8391 19.7683 10.4994 19.7683Z" fill="white"/>
<path d="M15.6771 9.67621C15.7029 10.0149 15.9977 10.2687 16.3371 10.2431C16.6759 10.2174 16.9297 9.92192 16.904 9.58311C16.6551 6.30223 13.8418 3.73218 10.4994 3.73218C6.767 3.73218 3.69118 6.76129 3.69118 10.4993C3.69118 13.8401 6.27927 16.6534 9.58317 16.904C9.92194 16.9297 10.2174 16.676 10.2432 16.3372C10.2689 15.9983 10.015 15.7029 9.67627 15.6772C7.01008 15.4749 4.92157 13.2005 4.92157 10.4993C4.92157 7.44637 7.42378 4.96257 10.4994 4.96257C13.2022 4.96257 15.4766 7.03304 15.6771 9.67621Z" fill="white"/>
<path d="M10.4994 8.65373C10.9914 8.65373 11.4546 8.84596 11.8037 9.19498C12.0439 9.43524 12.4335 9.43524 12.6737 9.19498C12.914 8.95473 12.914 8.56523 12.6737 8.32497C12.0923 7.74357 11.3201 7.42334 10.4994 7.42334C8.80327 7.42334 7.42339 8.80323 7.42339 10.4993C7.42339 11.32 7.74362 12.0922 8.32502 12.6737C8.56523 12.9139 8.95473 12.9139 9.19503 12.6737C9.43529 12.4334 9.43529 12.0439 9.19503 11.8037C8.84605 11.4546 8.65378 10.9914 8.65378 10.4993C8.65378 9.48167 9.48171 8.65373 10.4994 8.65373Z" fill="white"/>
</g>
<defs>
<clipPath id="clip0_250_3100">
<rect width="21" height="21" fill="white"/>
</clipPath>
</defs>
</svg>
