<svg width="28" height="21" viewBox="0 0 28 21" fill="none" xmlns="http://www.w3.org/2000/svg">
<path d="M21.888 20.08H6.26397C3.07197 20.08 0.383972 17.476 0.383972 14.2V5.884C0.383972 2.692 2.98797 0.0039978 6.26397 0.0039978H21.888C25.08 0.0039978 27.768 2.608 27.768 5.884V14.2C27.768 17.476 25.08 20.08 21.888 20.08ZM6.26397 1.432C3.74397 1.432 1.64397 3.448 1.64397 6.052V14.368C1.64397 16.888 3.65997 18.988 6.26397 18.988H21.888C24.408 18.988 26.508 16.888 26.508 14.368V6.136C26.508 3.616 24.492 1.516 21.888 1.516H6.26397V1.432Z" fill="white"/>
<path d="M11.3039 15.124C10.7999 15.124 10.3799 14.704 10.3799 14.2V6.38799C10.3799 5.88399 10.7999 5.46399 11.3039 5.46399C11.4719 5.46399 11.6399 5.54799 11.8079 5.63199L18.3599 9.32799C18.6119 9.49599 18.7799 9.74799 18.7799 10.168C18.7799 10.504 18.6119 10.84 18.2759 11.008L11.7239 15.124C11.6399 15.04 11.4719 15.124 11.3039 15.124ZM11.6399 6.97599V13.612L17.2679 10.168L11.6399 6.97599Z" fill="white"/>
</svg>
